<svg xmlns="http://www.w3.org/2000/svg" width="279.803" height="278.197" viewBox="0 0 279.803 278.197"><defs><style>.a{fill:#68c6c9;}.b{fill:#92dcde;}</style></defs><g transform="translate(-1206.864 -29.541)"><g transform="translate(1303.438 29.541)"><path class="a" d="M63.193,0H13.224S-3.432,0-3.432,16.656A166.574,166.574,0,0,0,163.151,183.239s-83.3,0-83.3-166.583C79.85,0,63.193,0,63.193,0" transform="translate(3.432)"/></g><g transform="translate(1303.428 46.188)"><path class="b" d="M173.8,94.808v49.969s0,16.656-16.656,16.656A166.574,166.574,0,0,1-9.439-5.149s0,83.3,166.583,83.3c16.656,0,16.656,16.656,16.656,16.656" transform="translate(9.439 5.149)"/></g><g transform="translate(1206.864 98.421)"><path class="b" d="M7.709,38.479s-18.287,18.345,0,23.548l110.829,30.09,27.838,108.6s6.892,14.657,23.567,0l35.332-35.351s11.784-11.764,0-23.548L66.608,3.147s-11.784-11.784-23.567,0Z" transform="translate(0.419 2.09)"/></g></g></svg>