<svg xmlns="http://www.w3.org/2000/svg" xmlns:xlink="http://www.w3.org/1999/xlink" width="139.332" height="43.459" viewBox="0 0 139.332 43.459"><defs><style>.a{fill:none;}.b{clip-path:url(#a);}.c{fill:#0473bf;}.d{fill:#fff;}</style><clipPath id="a"><path class="a" d="M0,14.282H139.332V-29.177H0Z" transform="translate(0 29.177)"/></clipPath></defs><g transform="translate(-1089 -29.541)"><g class="b" transform="translate(1089 29.541)"><g transform="translate(125.274 0)"><path class="c" d="M1.68,0H-2.154A1.252,1.252,0,0,0-3.432,1.278,12.781,12.781,0,0,0,9.349,14.059s-6.391,0-6.391-12.781A1.252,1.252,0,0,0,1.68,0" transform="translate(3.432)"/></g><g transform="translate(125.273 1.278)"><path class="d" d="M4.62,2.52V6.354A1.252,1.252,0,0,1,3.342,7.632,12.781,12.781,0,0,1-9.439-5.149s0,6.391,12.781,6.391A1.252,1.252,0,0,1,4.62,2.52" transform="translate(9.439 5.149)"/></g><g transform="translate(117.864 5.285)"><path class="d" d="M.2,1.023S-1.2,2.431.2,2.83l8.5,2.309,2.136,8.332s.529,1.125,1.808,0l2.711-2.712a1.25,1.25,0,0,0,0-1.807L4.724-1.688a1.252,1.252,0,0,0-1.808,0Z" transform="translate(0.419 2.09)"/></g><g transform="translate(0.032 8.38)"><path class="c" d="M0,8.041H1.853V-.207L6.5-5.138,15.589,8.041h1.643V7.307L7.725-6.43l8.635-9.262v-.736H14.89L1.853-2.375V-16.428H0ZM30.861,6.259c0,1.469.244,1.783,1.259,1.783h.489V-5.242c0-3.774-2.446-5.137-6.152-5.137a12.945,12.945,0,0,0-6.466,1.573v1.431h.734a8.965,8.965,0,0,1,5.662-1.607c2.656,0,4.474,1.013,4.474,3.844V-1.85a18.947,18.947,0,0,0-4.789-.56c-4.263,0-7.306,1.679-7.306,5.349,0,3.424,2.483,5.277,5.873,5.277a7.763,7.763,0,0,0,6.222-2.657Zm-5.977.594c-2.446,0-4.334-1.154-4.334-4.056,0-2.8,2.413-3.949,5.627-3.949a20.99,20.99,0,0,1,4.684.559V3.881a7.128,7.128,0,0,1-5.977,2.972m13.6-21.6c0-1.467-.1-1.679-1.119-1.679h-.629V8.041h.453c.7,0,1.119-.874,1.259-1.993A8.554,8.554,0,0,0,44.6,8.18c3.74,0,7.8-2.271,7.8-9.472,0-6.99-3.532-9.087-6.99-9.087a9.07,9.07,0,0,0-6.922,3.459Zm6.64,5.8c2.552,0,5.489,1.571,5.489,7.795,0,6.292-3.356,7.97-6.362,7.97a7.159,7.159,0,0,1-5.767-2.413V-5.208c1.573-1.886,3.706-3.739,6.64-3.739M57.3,8.041V-8.282c0-1.679-.14-1.889-1.189-1.889h-.56V8.041Zm-.839-21.008a1.177,1.177,0,0,0,1.187-1.189,1.2,1.2,0,0,0-1.187-1.189,1.2,1.2,0,0,0-1.187,1.189,1.177,1.177,0,0,0,1.187,1.189" transform="translate(0 16.428)"/></g><g transform="translate(61.393 5.741)"><path class="d" d="M11.511,3.318c-.451.642-.77.539-.77.539-.688-.088-.579-1.065-.5-1.591a3.614,3.614,0,0,1,.585-1.129c.8-1.148,1.154-.64,1.242-.49a3.4,3.4,0,0,1-.556,2.671M27.3,2.05c.383-.4,1.089-.082,1.466.252a1.276,1.276,0,0,1,.375,1.047,3.921,3.921,0,0,1-1.489,2.505,15.767,15.767,0,0,1-1.941,1.469s.15-3.774,1.589-5.273M35.08,5.105c-.28-.1-.334.042-.419.125-.167.21-2.426,5.112-3.28,6.861-1.5,3.077-4.241,5.939-5.408,6.35a1.9,1.9,0,0,1-1.856-.447c-.587-.529-.544-2.8-.375-3.85q.25-1.633.627-3.138a3.28,3.28,0,0,1,.754-1.631c.375-.335.848-.739,1.381-1.172a14.946,14.946,0,0,0,3.472-3.724,2.2,2.2,0,0,0-.335-2.51A3.459,3.459,0,0,0,27,.713a2.527,2.527,0,0,0-2.091,1.212c-.615.865-2.056,3.214-2.288,3.563C22,6.45,21.242,7.706,20.323,9.3a30.845,30.845,0,0,1-2.3,3.43A33.781,33.781,0,0,1,13.209,18c-.419.293-.938.567-1.276.407-.868-.413.76-6.73,1.093-7.811.436-1.3,2.687-6.171,2.443-6.862-.3-.852-1.673-.5-1.924-.5-.289,0-.439-.2-.419-.335A4.962,4.962,0,0,0,12.834.133a1.589,1.589,0,0,0-1.3-.8A2.834,2.834,0,0,0,9.862.217a3.23,3.23,0,0,0-1.214,2.3,2.3,2.3,0,0,0,.189.786A112.066,112.066,0,0,1,5.762,14.413a15.228,15.228,0,0,1-1.387,2.9c-.314.524-.5.556-.868.429-.383-.133-.38-.967-.413-2.012-.033-1.132,0-7.672-.349-9.639a2.637,2.637,0,0,0-1.6-2.117C.745,3.781,0,3.65-.181,4.368A16.928,16.928,0,0,0-.5,6.331a16.806,16.806,0,0,1-4.071,7.993c-.369.258-.614.313-.834.106s-.164-1.078.085-2.6A22.1,22.1,0,0,1-4.09,7.509,7.4,7.4,0,0,1-1.075,3.845q1-.425,1.081-.9c.086-.363-.186-.687-.758-.855A5.866,5.866,0,0,0-5.085,3.231c-2.592,2.392-3.03,5.815-3.167,7.439a6.793,6.793,0,0,0,.012,1.7,15.246,15.246,0,0,1-8.036,5.021,2.665,2.665,0,0,1-3.465-2.029C-22.476,2.993-14.187-3.032-13.317-3.409c.988-.408,1.923-.9,5.16,1.347a1.263,1.263,0,0,0,1.571-.273c.137-.206.731-1.23-1.025-2.459A8.329,8.329,0,0,0-12.87-6.775a5.16,5.16,0,0,0-3.621,1.3,24.931,24.931,0,0,0-5.395,8.2c-.958,2.459-3.538,9.2.837,15.41,1.095,1.236,2.569,2.5,6.061,1.667a17.747,17.747,0,0,0,7.78-5.323,2.628,2.628,0,0,0,3.386.836A12.558,12.558,0,0,0-.805,11.471c.128-.273.36-.3.378-.216.155.074-.125,4.069,1.883,7.725a2.586,2.586,0,0,0,2.495,1.309c1.525-.113,2.815-3.962,3.068-4.536A50.448,50.448,0,0,0,9.39,4.371a2.68,2.68,0,0,0,2.23,1.16c.164-.034.167.125.083.375s-.31.821-.712,1.8a43.529,43.529,0,0,0-2.008,7.406,6.981,6.981,0,0,0,0,2.8,4,4,0,0,0,1.883,2.175,2.741,2.741,0,0,0,1.172.377c1.439.1,2.681-1.662,3.22-2.3,1.123-1.323,5.6-7.759,5.852-8.167a12.7,12.7,0,0,0-.131,6.195,5.332,5.332,0,0,0,2.677,3.6,3.629,3.629,0,0,0,2.678.334c2.383-.545,4.979-4.644,6.068-6.946a44.253,44.253,0,0,0,2.812-7.337c.121-.457.107-.642-.136-.739" transform="translate(23.517 6.778)"/></g><g transform="translate(117.495 28.128)"><path class="d" d="M1.023.621A.377.377,0,0,0,.6.241H-.112V1H.6c.244,0,.427-.115.427-.38M1.485.609a.759.759,0,0,1-.57.786l.551,1.081H.929L.4,1.444H-.112V2.477H-.568V-.2H.609a.785.785,0,0,1,.876.81m.938.576A2.018,2.018,0,0,0,.365-.873,2.02,2.02,0,0,0-1.7,1.185a2.021,2.021,0,0,0,2.06,2.06,2.02,2.02,0,0,0,2.058-2.06m.395,0A2.4,2.4,0,0,1,.365,3.638,2.406,2.406,0,0,1-2.09,1.185,2.406,2.406,0,0,1,.365-1.268,2.4,2.4,0,0,1,2.818,1.185" transform="translate(2.09 1.268)"/></g></g><g transform="translate(1089 68.241)"><path class="d" d="M0,0V3.731H2.413v-.55H.554V0Z"/></g><g transform="translate(1091.292 68.241)"><path class="d" d="M.024,0-.05,1.338H.316L.722,0Z" transform="translate(0.05)"/></g><g class="b" transform="translate(1089 29.541)"><g transform="translate(3.24 39.574)"><path class="d" d="M.571.939V.662A1.232,1.232,0,0,1,.23.9.96.96,0,0,1-.2,1,1.211,1.211,0,0,1-.54.946.877.877,0,0,1-.852.784.824.824,0,0,1-1.078.491.97.97,0,0,1-1.166.054a.892.892,0,0,1,.085-.4A.788.788,0,0,1-.847-.633,1.017,1.017,0,0,1-.494-.8,1.715,1.715,0,0,1-.052-.852a1.566,1.566,0,0,1,.623.106V-.953A.452.452,0,0,0,.435-1.3a.566.566,0,0,0-.392-.122,1.727,1.727,0,0,0-.392.042,1.356,1.356,0,0,0-.338.134L-.9-1.668a1.784,1.784,0,0,1,.43-.186A2.016,2.016,0,0,1,.06-1.918a1.175,1.175,0,0,1,.758.232.85.85,0,0,1,.29.706V.939Zm0-1.193A.961.961,0,0,0,.307-.345,1.793,1.793,0,0,0-.068-.376.7.7,0,0,0-.49-.265a.354.354,0,0,0-.155.3A.444.444,0,0,0-.511.374.565.565,0,0,0-.105.5.732.732,0,0,0,.3.389.924.924,0,0,0,.571.145Z" transform="translate(1.166 1.918)"/></g><g transform="translate(6.068 39.574)"><path class="d" d="M.622.284A1.322,1.322,0,0,0,.29.026a.761.761,0,0,0-.35-.082A.559.559,0,0,0-.54.19,1.156,1.156,0,0,0-.716.869a1.61,1.61,0,0,0,.043.383.92.92,0,0,0,.128.3.606.606,0,0,0,.21.194.575.575,0,0,0,.29.07A.608.608,0,0,0,.29,1.726a1.783,1.783,0,0,0,.3-.259l.352.347a2.03,2.03,0,0,1-.176.2,1.2,1.2,0,0,1-.216.165,1.131,1.131,0,0,1-.27.115,1.243,1.243,0,0,1-.341.042,1.119,1.119,0,0,1-.477-.1A1.131,1.131,0,0,1-.92,1.939a1.411,1.411,0,0,1-.256-.456,1.782,1.782,0,0,1-.094-.6,1.85,1.85,0,0,1,.1-.618,1.411,1.411,0,0,1,.261-.46A1.094,1.094,0,0,1-.524-.48a1.177,1.177,0,0,1,.48-.1,1.219,1.219,0,0,1,.551.121A1.343,1.343,0,0,1,.946-.1Z" transform="translate(1.27 0.58)"/></g><g transform="translate(8.658 39.574)"><path class="d" d="M.622.284A1.3,1.3,0,0,0,.288.026.751.751,0,0,0-.061-.056.559.559,0,0,0-.54.19,1.156,1.156,0,0,0-.716.869a1.61,1.61,0,0,0,.043.383.92.92,0,0,0,.128.3.606.606,0,0,0,.21.194.575.575,0,0,0,.29.07.6.6,0,0,0,.332-.088,1.73,1.73,0,0,0,.3-.259l.352.347a2.03,2.03,0,0,1-.176.2,1.2,1.2,0,0,1-.216.165,1.131,1.131,0,0,1-.27.115,1.243,1.243,0,0,1-.341.042,1.119,1.119,0,0,1-.477-.1A1.131,1.131,0,0,1-.92,1.939a1.411,1.411,0,0,1-.256-.456,1.782,1.782,0,0,1-.094-.6,1.85,1.85,0,0,1,.1-.618,1.411,1.411,0,0,1,.261-.46A1.094,1.094,0,0,1-.524-.48a1.177,1.177,0,0,1,.48-.1,1.219,1.219,0,0,1,.551.121A1.343,1.343,0,0,1,.946-.1Z" transform="translate(1.27 0.58)"/></g><g transform="translate(11.247 39.575)"><path class="d" d="M.819.474a1.876,1.876,0,0,1-.1.621,1.342,1.342,0,0,1-.267.463,1.144,1.144,0,0,1-.4.287,1.237,1.237,0,0,1-.5.1,1.16,1.16,0,0,1-.49-.1,1.156,1.156,0,0,1-.389-.3,1.413,1.413,0,0,1-.259-.457,1.835,1.835,0,0,1-.092-.6,1.821,1.821,0,0,1,.1-.612,1.383,1.383,0,0,1,.264-.462A1.115,1.115,0,0,1-.92-.871a1.219,1.219,0,0,1,.493-.1,1.18,1.18,0,0,1,.5.1,1.172,1.172,0,0,1,.4.29A1.294,1.294,0,0,1,.726-.12,1.8,1.8,0,0,1,.819.474M.265.491A1.13,1.13,0,0,0,.076-.194.618.618,0,0,0-.448-.446a.57.57,0,0,0-.493.252A1.142,1.142,0,0,0-1.12.474a1.114,1.114,0,0,0,.192.706.612.612,0,0,0,.5.243A.554.554,0,0,0-.14,1.349a.734.734,0,0,0,.219-.2.973.973,0,0,0,.139-.3A1.354,1.354,0,0,0,.265.491" transform="translate(1.674 0.969)"/></g><g transform="translate(14.317 39.574)"><path class="d" d="M1.068.939V-.64a1,1,0,0,0-.133-.594.479.479,0,0,0-.4-.171.458.458,0,0,0-.405.186A.911.911,0,0,0,0-.694V.939H-.557V-.64A1,1,0,0,0-.69-1.234a.479.479,0,0,0-.4-.171.458.458,0,0,0-.405.186.911.911,0,0,0-.13.526V.939h-.554V-1.854h.554l-.006.265a.739.739,0,0,1,.277-.243.867.867,0,0,1,.389-.086A.943.943,0,0,1-.5-1.812a.783.783,0,0,1,.3.31,1.352,1.352,0,0,1,.156-.173A1.025,1.025,0,0,1,.142-1.8.878.878,0,0,1,.37-1.887a1.2,1.2,0,0,1,.29-.031.851.851,0,0,1,.727.314,1.564,1.564,0,0,1,.235.94v1.6Z" transform="translate(2.182 1.918)"/></g><g transform="translate(18.802 39.575)"><path class="d" d="M.772.494a1.912,1.912,0,0,1-.091.626,1.31,1.31,0,0,1-.243.439.939.939,0,0,1-.352.261,1.033,1.033,0,0,1-.419.086.863.863,0,0,1-.4-.1,1.115,1.115,0,0,1-.3-.226V2.59l-.544.283V-.946h.544v.265A1.667,1.667,0,0,1-.7-.915a.836.836,0,0,1,.4-.094,1.055,1.055,0,0,1,.422.085.906.906,0,0,1,.344.267,1.364,1.364,0,0,1,.229.466A2.488,2.488,0,0,1,.772.494M.218.51A1.4,1.4,0,0,0,.056-.26.528.528,0,0,0-.407-.5a.638.638,0,0,0-.362.109,1.109,1.109,0,0,0-.27.247V1.029a.9.9,0,0,0,.116.127.922.922,0,0,0,.153.116.841.841,0,0,0,.18.088.61.61,0,0,0,.2.036.518.518,0,0,0,.451-.22A1.177,1.177,0,0,0,.218.51" transform="translate(1.578 1.009)"/></g><g transform="translate(21.563 39.574)"><path class="d" d="M.571.939V.662A1.232,1.232,0,0,1,.23.9.96.96,0,0,1-.2,1,1.211,1.211,0,0,1-.54.946.877.877,0,0,1-.852.784.824.824,0,0,1-1.078.491.97.97,0,0,1-1.166.054a.892.892,0,0,1,.085-.4A.788.788,0,0,1-.847-.633,1.017,1.017,0,0,1-.494-.8,1.715,1.715,0,0,1-.052-.852a1.566,1.566,0,0,1,.623.106V-.953A.452.452,0,0,0,.435-1.3a.566.566,0,0,0-.392-.122,1.727,1.727,0,0,0-.392.042,1.356,1.356,0,0,0-.338.134L-.9-1.668a1.784,1.784,0,0,1,.43-.186A2.016,2.016,0,0,1,.06-1.918a1.175,1.175,0,0,1,.758.232.85.85,0,0,1,.29.706V.939Zm0-1.193A.961.961,0,0,0,.307-.345,1.793,1.793,0,0,0-.068-.376.7.7,0,0,0-.49-.265a.354.354,0,0,0-.155.3A.444.444,0,0,0-.511.374.565.565,0,0,0-.105.5.732.732,0,0,0,.3.389.924.924,0,0,0,.571.145Z" transform="translate(1.166 1.918)"/></g><g transform="translate(24.402 39.574)"><path class="d" d="M.751,1.034a.907.907,0,0,1-.216.4.964.964,0,0,1-.408.246,2.241,2.241,0,0,1-.633.1l-.186-.416a2.585,2.585,0,0,0,.478-.064.663.663,0,0,0,.292-.146A.535.535,0,0,0,.221.894,1.491,1.491,0,0,0,.261.522V.474A1.809,1.809,0,0,1-.066.708.814.814,0,0,1-.461.8,1.048,1.048,0,0,1-.881.717.871.871,0,0,1-1.221.45,1.35,1.35,0,0,1-1.45-.016,2.417,2.417,0,0,1-1.535-.7a1.959,1.959,0,0,1,.091-.623A1.274,1.274,0,0,1-1.2-1.766a1.016,1.016,0,0,1,.35-.262,1.063,1.063,0,0,1,.416-.085.836.836,0,0,1,.4.1.985.985,0,0,1,.3.225V-2.05H.815V.479a2.118,2.118,0,0,1-.064.556M.272-1.234a.829.829,0,0,0-.116-.128A1.011,1.011,0,0,0,0-1.478.89.89,0,0,0-.18-1.566a.572.572,0,0,0-.2-.034.512.512,0,0,0-.45.22,1.173,1.173,0,0,0-.153.664A1.4,1.4,0,0,0-.82.051a.526.526,0,0,0,.463.24A.644.644,0,0,0,0,.182a1.109,1.109,0,0,0,.27-.247Z" transform="translate(1.535 2.113)"/></g><g transform="translate(27.461 39.574)"><path class="d" d="M.557.939V-.64a.9.9,0,0,0-.15-.594.527.527,0,0,0-.42-.171.5.5,0,0,0-.422.186.827.827,0,0,0-.147.526V.939h-.554V-1.854h.554l-.006.265a.705.705,0,0,1,.3-.243.976.976,0,0,1,.407-.086A.9.9,0,0,1,.857-1.6a1.48,1.48,0,0,1,.253.94v1.6Z" transform="translate(1.137 1.918)"/></g><g transform="translate(30.264 39.573)"><path class="d" d="M.79.461c0,.049,0,.1,0,.14S.778.683.773.711H-1.075a1.186,1.186,0,0,0,.085.346.754.754,0,0,0,.161.237.615.615,0,0,0,.213.14.71.71,0,0,0,.244.045A.872.872,0,0,0-.049,1.42a1.293,1.293,0,0,0,.284-.165l.325.352a1.38,1.38,0,0,1-.416.271,1.41,1.41,0,0,1-.548.1,1.155,1.155,0,0,1-.466-.1,1.071,1.071,0,0,1-.386-.283,1.354,1.354,0,0,1-.262-.457,1.851,1.851,0,0,1-.1-.618,2.006,2.006,0,0,1,.089-.629,1.316,1.316,0,0,1,.252-.456,1.048,1.048,0,0,1,.386-.28,1.263,1.263,0,0,1,.5-.1,1.136,1.136,0,0,1,.518.113,1.045,1.045,0,0,1,.368.3,1.291,1.291,0,0,1,.219.447A2,2,0,0,1,.79.461m-.6-.475A.645.645,0,0,0,.066-.237a.579.579,0,0,0-.2-.152A.69.69,0,0,0-.426-.445a.553.553,0,0,0-.439.183.931.931,0,0,0-.2.52h1.3A1.211,1.211,0,0,0,.185-.014" transform="translate(1.613 0.942)"/></g><g transform="translate(33.247 39.574)"><path class="d" d="M1.068.939V-.64a1,1,0,0,0-.133-.594.477.477,0,0,0-.4-.171.458.458,0,0,0-.405.186A.911.911,0,0,0,0-.694V.939H-.557V-.64A1,1,0,0,0-.69-1.234a.479.479,0,0,0-.4-.171.458.458,0,0,0-.405.186.911.911,0,0,0-.13.526V.939h-.554V-1.854h.554l-.006.265a.739.739,0,0,1,.277-.243.867.867,0,0,1,.389-.086A.943.943,0,0,1-.5-1.812a.783.783,0,0,1,.3.31,1.352,1.352,0,0,1,.156-.173A.975.975,0,0,1,.142-1.8.878.878,0,0,1,.37-1.887a1.2,1.2,0,0,1,.29-.031.851.851,0,0,1,.727.314,1.564,1.564,0,0,1,.235.94v1.6Z" transform="translate(2.182 1.918)"/></g><g transform="translate(37.6 39.573)"><path class="d" d="M.79.461c0,.049,0,.1,0,.14S.778.683.773.711H-1.075a1.186,1.186,0,0,0,.085.346.754.754,0,0,0,.161.237.615.615,0,0,0,.213.14.71.71,0,0,0,.244.045A.872.872,0,0,0-.049,1.42a1.293,1.293,0,0,0,.284-.165l.325.352a1.38,1.38,0,0,1-.416.271,1.41,1.41,0,0,1-.548.1,1.155,1.155,0,0,1-.466-.1,1.071,1.071,0,0,1-.386-.283,1.354,1.354,0,0,1-.262-.457,1.851,1.851,0,0,1-.1-.618,1.962,1.962,0,0,1,.091-.629,1.29,1.29,0,0,1,.25-.456,1.048,1.048,0,0,1,.386-.28,1.263,1.263,0,0,1,.5-.1,1.132,1.132,0,0,1,.518.113,1.045,1.045,0,0,1,.368.3,1.291,1.291,0,0,1,.219.447A2,2,0,0,1,.79.461m-.6-.475A.645.645,0,0,0,.066-.237a.579.579,0,0,0-.2-.152A.69.69,0,0,0-.426-.445a.553.553,0,0,0-.439.183.931.931,0,0,0-.2.52h1.3A1.133,1.133,0,0,0,.185-.014" transform="translate(1.613 0.942)"/></g><g transform="translate(40.584 39.574)"><path class="d" d="M.557.939V-.64a.9.9,0,0,0-.15-.594.527.527,0,0,0-.42-.171.5.5,0,0,0-.422.186.827.827,0,0,0-.147.526V.939h-.554V-1.854h.554l-.006.265a.705.705,0,0,1,.3-.243.976.976,0,0,1,.407-.086A.9.9,0,0,1,.857-1.6a1.48,1.48,0,0,1,.253.94v1.6Z" transform="translate(1.137 1.918)"/></g><g transform="translate(43.264 38.546)"><path class="d" d="M.515,1.254a.982.982,0,0,1-.237.094,1.265,1.265,0,0,1-.3.034A.6.6,0,0,1-.485,1.2.807.807,0,0,1-.653.641V-.973h-.4v-.5h.4v-.8l.539-.287v1.087H.579v.5H-.114V.545A.4.4,0,0,0-.048.811a.294.294,0,0,0,.222.07A.707.707,0,0,0,.391.845.829.829,0,0,0,.579.768Z" transform="translate(1.052 2.561)"/></g><g transform="translate(46.754 38.547)"><path class="d" d="M.593,1.275V1.009a1.608,1.608,0,0,1-.331.234.831.831,0,0,1-.4.094,1.035,1.035,0,0,1-.422-.085A.877.877,0,0,1-.9.985,1.3,1.3,0,0,1-1.13.52a2.488,2.488,0,0,1-.082-.685,1.955,1.955,0,0,1,.089-.623A1.33,1.33,0,0,1-.88-1.232a.972.972,0,0,1,.352-.261A1.062,1.062,0,0,1-.11-1.577a.841.841,0,0,1,.4.1,1.038,1.038,0,0,1,.3.226V-2.322l.544-.283v3.88ZM.6-.7A1.022,1.022,0,0,0,.482-.828,1.119,1.119,0,0,0,.328-.944a.861.861,0,0,0-.183-.086.576.576,0,0,0-.2-.036.512.512,0,0,0-.45.22,1.161,1.161,0,0,0-.153.664A1.406,1.406,0,0,0-.5.587.527.527,0,0,0-.032.825.637.637,0,0,0,.328.717,1.143,1.143,0,0,0,.6.471Z" transform="translate(1.212 2.605)"/></g><g transform="translate(49.679 39.573)"><path class="d" d="M.79.461c0,.049,0,.1,0,.14S.778.683.773.711H-1.075a1.186,1.186,0,0,0,.085.346.754.754,0,0,0,.161.237.615.615,0,0,0,.213.14.71.71,0,0,0,.244.045A.872.872,0,0,0-.049,1.42a1.293,1.293,0,0,0,.284-.165l.325.352a1.38,1.38,0,0,1-.416.271,1.41,1.41,0,0,1-.548.1,1.155,1.155,0,0,1-.466-.1,1.071,1.071,0,0,1-.386-.283,1.354,1.354,0,0,1-.262-.457,1.851,1.851,0,0,1-.1-.618,1.962,1.962,0,0,1,.091-.629,1.29,1.29,0,0,1,.25-.456,1.048,1.048,0,0,1,.386-.28,1.263,1.263,0,0,1,.5-.1,1.132,1.132,0,0,1,.518.113,1.045,1.045,0,0,1,.368.3,1.291,1.291,0,0,1,.219.447A2,2,0,0,1,.79.461m-.6-.475A.645.645,0,0,0,.066-.237a.579.579,0,0,0-.2-.152A.69.69,0,0,0-.426-.445a.553.553,0,0,0-.439.183.931.931,0,0,0-.2.52h1.3A1.211,1.211,0,0,0,.185-.014" transform="translate(1.613 0.942)"/></g><g transform="translate(52.443 39.574)"><path class="d" d="M.7.687a.792.792,0,0,1-.088.39.719.719,0,0,1-.231.255.967.967,0,0,1-.334.137,1.719,1.719,0,0,1-.4.043,1.711,1.711,0,0,1-.573-.1,1.918,1.918,0,0,1-.5-.256l.25-.416A1.581,1.581,0,0,0-.766.947a1.306,1.306,0,0,0,.408.07c.341,0,.511-.1.511-.31A.29.29,0,0,0-.019.451,4.138,4.138,0,0,0-.5.238,2.939,2.939,0,0,1-.877.066a1.121,1.121,0,0,1-.256-.189.587.587,0,0,1-.14-.226.864.864,0,0,1-.043-.29.75.75,0,0,1,.069-.331.657.657,0,0,1,.2-.24.869.869,0,0,1,.3-.143A1.41,1.41,0,0,1-.363-1.4a1.625,1.625,0,0,1,.515.085,1.632,1.632,0,0,1,.433.225l-.24.422A1.289,1.289,0,0,0,0-.853,1.167,1.167,0,0,0-.38-.911.462.462,0,0,0-.672-.84a.222.222,0,0,0-.091.183.249.249,0,0,0,.021.1.311.311,0,0,0,.08.092.961.961,0,0,0,.156.1c.067.034.153.073.259.115.156.06.293.119.41.174a1.263,1.263,0,0,1,.3.186A.664.664,0,0,1,.639.352.86.86,0,0,1,.7.687" transform="translate(1.424 1.403)"/></g><g transform="translate(56.504 39.575)"><path class="d" d="M.772.494a1.912,1.912,0,0,1-.091.626,1.334,1.334,0,0,1-.241.439.944.944,0,0,1-.353.261,1.033,1.033,0,0,1-.419.086.863.863,0,0,1-.4-.1,1.139,1.139,0,0,1-.3-.226V2.59l-.544.283V-.946h.544v.265A1.667,1.667,0,0,1-.7-.915a.837.837,0,0,1,.4-.094,1.053,1.053,0,0,1,.42.085.906.906,0,0,1,.344.267,1.364,1.364,0,0,1,.229.466A2.488,2.488,0,0,1,.772.494M.218.51A1.4,1.4,0,0,0,.056-.26.528.528,0,0,0-.407-.5a.642.642,0,0,0-.362.109,1.109,1.109,0,0,0-.27.247V1.029a.9.9,0,0,0,.116.127.922.922,0,0,0,.153.116.841.841,0,0,0,.18.088.61.61,0,0,0,.2.036.518.518,0,0,0,.451-.22A1.177,1.177,0,0,0,.218.51" transform="translate(1.578 1.009)"/></g><g transform="translate(59.264 39.574)"><path class="d" d="M.571.939V.662A1.232,1.232,0,0,1,.23.9.96.96,0,0,1-.2,1,1.211,1.211,0,0,1-.54.946.877.877,0,0,1-.852.784.824.824,0,0,1-1.078.491.97.97,0,0,1-1.166.054a.892.892,0,0,1,.085-.4A.788.788,0,0,1-.847-.633,1.017,1.017,0,0,1-.494-.8,1.715,1.715,0,0,1-.052-.852a1.566,1.566,0,0,1,.623.106V-.953A.452.452,0,0,0,.435-1.3a.566.566,0,0,0-.392-.122,1.727,1.727,0,0,0-.392.042,1.356,1.356,0,0,0-.338.134L-.9-1.668a1.784,1.784,0,0,1,.43-.186A2.016,2.016,0,0,1,.06-1.918a1.175,1.175,0,0,1,.758.232.85.85,0,0,1,.29.706V.939Zm0-1.193A.961.961,0,0,0,.307-.345,1.793,1.793,0,0,0-.068-.376.7.7,0,0,0-.49-.265a.354.354,0,0,0-.155.3A.444.444,0,0,0-.511.374.565.565,0,0,0-.105.5.732.732,0,0,0,.3.389.924.924,0,0,0,.571.145Z" transform="translate(1.166 1.918)"/></g><g transform="translate(61.997 38.546)"><path class="d" d="M.515,1.254a.982.982,0,0,1-.237.094,1.265,1.265,0,0,1-.3.034A.6.6,0,0,1-.485,1.2.807.807,0,0,1-.653.641V-.973h-.4v-.5h.4v-.8l.539-.287v1.087H.579v.5H-.114V.545A.4.4,0,0,0-.048.811a.294.294,0,0,0,.222.07A.707.707,0,0,0,.391.845.829.829,0,0,0,.579.768Z" transform="translate(1.052 2.561)"/></g><g transform="translate(64.219 38.562)"><path class="d" d="M.233.117a.334.334,0,0,1-.1.247.334.334,0,0,1-.247.1.34.34,0,0,1-.253-.1.334.334,0,0,1-.1-.247.34.34,0,0,1,.1-.253.346.346,0,0,1,.253-.1.34.34,0,0,1,.247.1.34.34,0,0,1,.1.253M-.4.831H.159v2.8H-.4Zm0,2.8" transform="translate(0.476 0.24)"/></g><g transform="translate(65.45 39.573)"><path class="d" d="M.79.461c0,.049,0,.1,0,.14S.778.683.773.711H-1.075a1.186,1.186,0,0,0,.085.346.754.754,0,0,0,.161.237.615.615,0,0,0,.213.14.71.71,0,0,0,.244.045A.872.872,0,0,0-.049,1.42a1.293,1.293,0,0,0,.284-.165l.325.352a1.38,1.38,0,0,1-.416.271,1.41,1.41,0,0,1-.548.1,1.155,1.155,0,0,1-.466-.1,1.071,1.071,0,0,1-.386-.283,1.354,1.354,0,0,1-.262-.457,1.851,1.851,0,0,1-.1-.618,1.962,1.962,0,0,1,.091-.629,1.29,1.29,0,0,1,.25-.456,1.048,1.048,0,0,1,.386-.28,1.263,1.263,0,0,1,.5-.1,1.132,1.132,0,0,1,.518.113,1.045,1.045,0,0,1,.368.3,1.291,1.291,0,0,1,.219.447A2,2,0,0,1,.79.461m-.6-.475A.645.645,0,0,0,.066-.237a.579.579,0,0,0-.2-.152A.69.69,0,0,0-.426-.445a.553.553,0,0,0-.439.183.92.92,0,0,0-.2.52h1.3A1.211,1.211,0,0,0,.185-.014" transform="translate(1.613 0.942)"/></g><g transform="translate(68.434 39.574)"><path class="d" d="M.557.939V-.64a.9.9,0,0,0-.15-.594.527.527,0,0,0-.42-.171.5.5,0,0,0-.422.186.827.827,0,0,0-.147.526V.939h-.554V-1.854h.554l-.006.265a.705.705,0,0,1,.3-.243.976.976,0,0,1,.407-.086A.9.9,0,0,1,.857-1.6a1.48,1.48,0,0,1,.253.94v1.6Z" transform="translate(1.137 1.918)"/></g><g transform="translate(71.119 38.546)"><path class="d" d="M.515,1.254a.982.982,0,0,1-.237.094,1.265,1.265,0,0,1-.3.034A.6.6,0,0,1-.485,1.2.807.807,0,0,1-.653.641V-.973h-.4v-.5h.4v-.8l.539-.287v1.087H.579v.5H-.114V.545A.4.4,0,0,0-.048.811a.294.294,0,0,0,.222.07A.707.707,0,0,0,.391.845.829.829,0,0,0,.579.768Z" transform="translate(1.052 2.561)"/></g><g transform="translate(73.185 39.574)"><path class="d" d="M.7.687a.792.792,0,0,1-.088.39.719.719,0,0,1-.231.255.967.967,0,0,1-.334.137,1.719,1.719,0,0,1-.4.043,1.718,1.718,0,0,1-.573-.1,1.918,1.918,0,0,1-.5-.256l.252-.416A1.549,1.549,0,0,0-.766.947a1.306,1.306,0,0,0,.408.07c.341,0,.511-.1.511-.31A.29.29,0,0,0-.019.451,4.138,4.138,0,0,0-.5.238,2.939,2.939,0,0,1-.877.066a1.121,1.121,0,0,1-.256-.189.605.605,0,0,1-.14-.226.9.9,0,0,1-.043-.29.75.75,0,0,1,.069-.331.657.657,0,0,1,.2-.24.869.869,0,0,1,.3-.143A1.41,1.41,0,0,1-.363-1.4a1.625,1.625,0,0,1,.515.085,1.632,1.632,0,0,1,.433.225l-.24.422A1.289,1.289,0,0,0,0-.853,1.164,1.164,0,0,0-.378-.911.464.464,0,0,0-.672-.84a.222.222,0,0,0-.091.183.249.249,0,0,0,.021.1.311.311,0,0,0,.08.092.961.961,0,0,0,.156.1c.067.034.153.073.259.115.156.06.293.119.41.174a1.263,1.263,0,0,1,.3.186A.664.664,0,0,1,.639.352.86.86,0,0,1,.7.687" transform="translate(1.424 1.403)"/></g><g transform="translate(77.246 39.575)"><path class="d" d="M.772.494a1.912,1.912,0,0,1-.091.626,1.308,1.308,0,0,1-.241.439.944.944,0,0,1-.353.261,1.033,1.033,0,0,1-.419.086.863.863,0,0,1-.4-.1,1.115,1.115,0,0,1-.3-.226V2.59l-.544.283V-.946h.544v.265A1.667,1.667,0,0,1-.7-.915a.836.836,0,0,1,.4-.094,1.055,1.055,0,0,1,.422.085.906.906,0,0,1,.344.267,1.337,1.337,0,0,1,.229.466A2.488,2.488,0,0,1,.772.494M.218.51A1.4,1.4,0,0,0,.056-.26.528.528,0,0,0-.407-.5a.642.642,0,0,0-.362.109,1.109,1.109,0,0,0-.27.247V1.029a.9.9,0,0,0,.116.127.922.922,0,0,0,.153.116.841.841,0,0,0,.18.088.61.61,0,0,0,.2.036.518.518,0,0,0,.451-.22A1.164,1.164,0,0,0,.218.51" transform="translate(1.578 1.009)"/></g><g transform="translate(80.006 39.574)"><path class="d" d="M.571.939V.662A1.224,1.224,0,0,1,.231.9.966.966,0,0,1-.2,1,1.193,1.193,0,0,1-.539.946.872.872,0,0,1-.852.784.841.841,0,0,1-1.078.491.97.97,0,0,1-1.166.054a.892.892,0,0,1,.085-.4A.792.792,0,0,1-.846-.633,1.009,1.009,0,0,1-.494-.8,1.723,1.723,0,0,1-.052-.852a1.561,1.561,0,0,1,.623.106V-.953A.447.447,0,0,0,.435-1.3a.566.566,0,0,0-.392-.122,1.736,1.736,0,0,0-.392.042,1.379,1.379,0,0,0-.338.134L-.9-1.668a1.8,1.8,0,0,1,.432-.186A2,2,0,0,1,.06-1.918a1.182,1.182,0,0,1,.76.232.854.854,0,0,1,.29.706V.939Zm0-1.193A.961.961,0,0,0,.307-.345,1.793,1.793,0,0,0-.068-.376.7.7,0,0,0-.49-.265a.354.354,0,0,0-.155.3A.45.45,0,0,0-.511.374.567.567,0,0,0-.105.5.732.732,0,0,0,.3.389.924.924,0,0,0,.571.145Z" transform="translate(1.166 1.918)"/></g><g transform="translate(82.969 39.574)"><path class="d" d="M.5.21A.9.9,0,0,0,.315.136.89.89,0,0,0,.079.109a.485.485,0,0,0-.4.182A.845.845,0,0,0-.469.829v1.6h-.554V-.37h.554V-.1A.773.773,0,0,1-.205-.336.755.755,0,0,1,.17-.43,1.037,1.037,0,0,1,.45-.4a.574.574,0,0,1,.194.086Z" transform="translate(1.023 0.43)"/></g></g><g transform="translate(1175.512 68.241)"><path class="d" d="M0,0V3.731H.554V2.073H1.625v-.55H.554V.55H2.4V0Z"/></g><g transform="translate(1178.005 69.115)"><path class="d" d="M.5.21A.934.934,0,0,0,.315.136.89.89,0,0,0,.08.109.488.488,0,0,0-.325.291.855.855,0,0,0-.468.829v1.6h-.556V-.37h.556V-.1A.76.76,0,0,1-.2-.336.751.751,0,0,1,.171-.43,1.037,1.037,0,0,1,.451-.4a.6.6,0,0,1,.194.086Z" transform="translate(1.024 0.43)"/></g><g transform="translate(1179.865 69.114)"><path class="d" d="M.79.461c0,.049,0,.1,0,.14S.778.683.773.711H-1.074a1.142,1.142,0,0,0,.083.346.754.754,0,0,0,.161.237.615.615,0,0,0,.213.14.712.712,0,0,0,.246.045A.884.884,0,0,0-.048,1.42a1.284,1.284,0,0,0,.283-.165l.325.352a1.38,1.38,0,0,1-.416.271,1.405,1.405,0,0,1-.548.1,1.155,1.155,0,0,1-.466-.1,1.071,1.071,0,0,1-.386-.283,1.352,1.352,0,0,1-.261-.457,1.85,1.85,0,0,1-.1-.618,1.962,1.962,0,0,1,.091-.629,1.314,1.314,0,0,1,.25-.456,1.06,1.06,0,0,1,.386-.28,1.263,1.263,0,0,1,.5-.1,1.132,1.132,0,0,1,.518.113,1.032,1.032,0,0,1,.368.3,1.266,1.266,0,0,1,.219.447A1.94,1.94,0,0,1,.79.461m-.6-.475A.667.667,0,0,0,.067-.237a.6.6,0,0,0-.2-.152A.69.69,0,0,0-.426-.445a.55.55,0,0,0-.438.183.921.921,0,0,0-.2.52h1.3A1.065,1.065,0,0,0,.185-.014" transform="translate(1.613 0.942)"/></g><g transform="translate(1182.631 69.115)"><path class="d" d="M.7.687a.792.792,0,0,1-.088.39.709.709,0,0,1-.232.255.948.948,0,0,1-.332.137,1.713,1.713,0,0,1-.4.043,1.709,1.709,0,0,1-.572-.1,1.885,1.885,0,0,1-.5-.256l.25-.416A1.535,1.535,0,0,0-.765.947a1.3,1.3,0,0,0,.407.07c.341,0,.511-.1.511-.31A.287.287,0,0,0-.02.451,4.138,4.138,0,0,0-.5.238,2.85,2.85,0,0,1-.878.066a1.155,1.155,0,0,1-.256-.189A.65.65,0,0,1-1.276-.35a.9.9,0,0,1-.042-.29.75.75,0,0,1,.069-.331.657.657,0,0,1,.2-.24.869.869,0,0,1,.3-.143A1.425,1.425,0,0,1-.364-1.4a1.618,1.618,0,0,1,.515.085,1.632,1.632,0,0,1,.433.225l-.24.422A1.289,1.289,0,0,0,0-.853,1.164,1.164,0,0,0-.379-.911.464.464,0,0,0-.672-.84a.222.222,0,0,0-.091.183.249.249,0,0,0,.021.1.311.311,0,0,0,.08.092,1.032,1.032,0,0,0,.156.1,2.8,2.8,0,0,0,.259.115c.156.06.293.119.411.174A1.283,1.283,0,0,1,.46.109.664.664,0,0,1,.638.352.86.86,0,0,1,.7.687" transform="translate(1.423 1.403)"/></g><g transform="translate(1185.167 69.114)"><path class="d" d="M.79.461A1.387,1.387,0,0,1,.784.6c0,.045-.006.082-.01.11H-1.075a1.186,1.186,0,0,0,.085.346.754.754,0,0,0,.161.237.624.624,0,0,0,.212.14.727.727,0,0,0,.247.045A.87.87,0,0,0-.049,1.42a1.293,1.293,0,0,0,.284-.165l.325.352a1.38,1.38,0,0,1-.416.271,1.41,1.41,0,0,1-.548.1,1.155,1.155,0,0,1-.466-.1,1.071,1.071,0,0,1-.386-.283,1.354,1.354,0,0,1-.262-.457,1.851,1.851,0,0,1-.1-.618,1.962,1.962,0,0,1,.091-.629,1.29,1.29,0,0,1,.25-.456,1.048,1.048,0,0,1,.386-.28,1.261,1.261,0,0,1,.5-.1,1.138,1.138,0,0,1,.52.113,1.045,1.045,0,0,1,.368.3,1.318,1.318,0,0,1,.219.447A2,2,0,0,1,.79.461m-.6-.475A.67.67,0,0,0,.066-.237a.579.579,0,0,0-.2-.152A.7.7,0,0,0-.426-.445a.55.55,0,0,0-.438.183.91.91,0,0,0-.2.52h1.3A1.211,1.211,0,0,0,.185-.014" transform="translate(1.613 0.942)"/></g><g transform="translate(1188.152 69.115)"><path class="d" d="M.557.939V-.64a.9.9,0,0,0-.15-.594.529.529,0,0,0-.42-.171.5.5,0,0,0-.422.186.819.819,0,0,0-.149.526V.939h-.553V-1.854h.553l-.006.265a.715.715,0,0,1,.3-.243.988.988,0,0,1,.408-.086A.9.9,0,0,1,.857-1.6a1.48,1.48,0,0,1,.253.94v1.6Z" transform="translate(1.137 1.918)"/></g><g transform="translate(1191.033 68.103)"><path class="d" d="M.233.117a.339.339,0,0,1-.1.247.338.338,0,0,1-.249.1.343.343,0,0,1-.253-.1.34.34,0,0,1-.1-.247.346.346,0,0,1,.1-.253.349.349,0,0,1,.253-.1.343.343,0,0,1,.249.1.345.345,0,0,1,.1.253M-.4.831H.159v2.8H-.4Zm0,2.8" transform="translate(0.476 0.24)"/></g><g transform="translate(1192.377 69.174)"><path class="d" d="M.557.918l0-.267A.687.687,0,0,1,.266.893.943.943,0,0,1-.142.979.9.9,0,0,1-.885.665a1.471,1.471,0,0,1-.252-.937v-1.6h.553V-.3a.911.911,0,0,0,.15.6.531.531,0,0,0,.42.17A.512.512,0,0,0,.409.282.827.827,0,0,0,.557-.244V-1.876h.554V.918Z" transform="translate(1.137 1.876)"/></g><g transform="translate(1195.169 69.115)"><path class="d" d="M.7.687a.792.792,0,0,1-.088.39.709.709,0,0,1-.232.255.948.948,0,0,1-.332.137,1.713,1.713,0,0,1-.4.043,1.709,1.709,0,0,1-.572-.1,1.885,1.885,0,0,1-.5-.256l.25-.416A1.535,1.535,0,0,0-.765.947a1.3,1.3,0,0,0,.407.07c.341,0,.511-.1.511-.31A.287.287,0,0,0-.02.451,4.138,4.138,0,0,0-.5.238,2.85,2.85,0,0,1-.878.066a1.155,1.155,0,0,1-.256-.189A.65.65,0,0,1-1.276-.35a.9.9,0,0,1-.042-.29.75.75,0,0,1,.069-.331.657.657,0,0,1,.2-.24.869.869,0,0,1,.3-.143A1.425,1.425,0,0,1-.364-1.4a1.625,1.625,0,0,1,.515.085,1.632,1.632,0,0,1,.433.225l-.24.422A1.289,1.289,0,0,0,0-.853,1.164,1.164,0,0,0-.379-.911.464.464,0,0,0-.672-.84a.222.222,0,0,0-.091.183.249.249,0,0,0,.021.1.291.291,0,0,0,.08.092,1.032,1.032,0,0,0,.156.1,2.8,2.8,0,0,0,.259.115c.156.06.293.119.411.174A1.283,1.283,0,0,1,.46.109.664.664,0,0,1,.638.352.86.86,0,0,1,.7.687" transform="translate(1.423 1.403)"/></g><g transform="translate(1199.065 68.242)"><path class="d" d="M.758,1.226-.313-.688l-.693.837V1.226h-.544V-2.5h.544v1.425c0,.063,0,.127,0,.191s0,.13,0,.191,0,.1,0,.133A1.152,1.152,0,0,1-.941-.67c.034-.046.073-.1.116-.153S-.74-.933-.7-.985s.08-.1.112-.14L.518-2.5h.635L.06-1.15,1.391,1.226Z" transform="translate(1.549 2.504)"/></g><g transform="translate(1202.288 69.115)"><path class="d" d="M.571.939V.662A1.232,1.232,0,0,1,.23.9.955.955,0,0,1-.2,1,1.2,1.2,0,0,1-.54.946.877.877,0,0,1-.852.784.841.841,0,0,1-1.078.491.97.97,0,0,1-1.166.054a.892.892,0,0,1,.085-.4A.792.792,0,0,1-.846-.633,1,1,0,0,1-.494-.8,1.715,1.715,0,0,1-.052-.852a1.566,1.566,0,0,1,.623.106V-.953A.447.447,0,0,0,.435-1.3a.566.566,0,0,0-.392-.122,1.727,1.727,0,0,0-.392.042,1.379,1.379,0,0,0-.338.134L-.9-1.668a1.77,1.77,0,0,1,.432-.186,1.993,1.993,0,0,1,.526-.064,1.184,1.184,0,0,1,.761.232.853.853,0,0,1,.289.706V.939Zm0-1.193A.961.961,0,0,0,.307-.345,1.793,1.793,0,0,0-.068-.376.694.694,0,0,0-.49-.265a.354.354,0,0,0-.155.3A.45.45,0,0,0-.511.374.566.566,0,0,0-.107.5.733.733,0,0,0,.3.389.924.924,0,0,0,.571.145Z" transform="translate(1.166 1.918)"/></g><g transform="translate(1205.251 68.088)"><path class="d" d="M.772.832a1.955,1.955,0,0,1-.089.626A1.336,1.336,0,0,1,.44,1.9a.939.939,0,0,1-.352.261,1.038,1.038,0,0,1-.419.086.869.869,0,0,1-.4-.1,1.107,1.107,0,0,1-.3-.226v.261h-.544v-3.6l.544-.282V-.344A1.657,1.657,0,0,1-.7-.577.842.842,0,0,1-.3-.671a1.06,1.06,0,0,1,.422.085A.891.891,0,0,1,.461-.32,1.312,1.312,0,0,1,.69.146,2.488,2.488,0,0,1,.772.832M.218.848A1.416,1.416,0,0,0,.057.078.532.532,0,0,0-.408-.16a.637.637,0,0,0-.36.109A1.117,1.117,0,0,0-1.039.2V1.366a1,1,0,0,0,.116.127.877.877,0,0,0,.155.116.778.778,0,0,0,.18.088.6.6,0,0,0,.2.036.516.516,0,0,0,.451-.22A1.164,1.164,0,0,0,.218.848" transform="translate(1.577 1.699)"/></g><g transform="translate(1208.132 68.103)"><path class="d" d="M.233.117a.339.339,0,0,1-.1.247.338.338,0,0,1-.249.1.343.343,0,0,1-.253-.1.34.34,0,0,1-.1-.247.346.346,0,0,1,.1-.253.349.349,0,0,1,.253-.1.343.343,0,0,1,.249.1.345.345,0,0,1,.1.253M-.4.831H.159v2.8H-.4Zm0,2.8" transform="translate(0.476 0.24)"/></g><path class="a" d="M0,14.282H139.332V-29.177H0Z" transform="translate(1089 58.718)"/></g></svg>