<?xml version="1.0" encoding="UTF-8"?>
<svg width="153px" height="26px" viewBox="0 0 153 26" version="1.1" xmlns="http://www.w3.org/2000/svg" xmlns:xlink="http://www.w3.org/1999/xlink">
    <!-- Generator: sketchtool 52.5 (67469) - http://www.bohemiancoding.com/sketch -->
    <title>B71B271A-779F-4CC4-BE06-199D2079E2CB</title>
    <desc>Created with sketchtool.</desc>
    <defs>
        <linearGradient x1="50%" y1="100%" x2="50%" y2="3.061617e-15%" id="linearGradient-1">
            <stop stop-color="#3CECB6" offset="0%"></stop>
            <stop stop-color="#3BBFBA" offset="46.875%"></stop>
            <stop stop-color="#3ABCD9" offset="100%"></stop>
        </linearGradient>
    </defs>
    <g id="Page-1" stroke="none" stroke-width="1" fill="none" fill-rule="evenodd">
        <g id="account-patient-docv2" transform="translate(-84.000000, -11.000000)">
            <g id="header">
                <g id="logo-header" transform="translate(84.000000, 11.000000)">
                    <path d="M26.0422277,21.9308197 C26.0422277,24.1780687 24.2172078,26.0001625 21.96635,26.0001625 L4.07635261,26.0001625 C1.82469433,26.0001625 -0.000325531915,24.1780687 -0.000325531915,21.9308197 L-0.000325531915,4.06950534 C-0.000325531915,1.82225631 1.82469433,0.0001625 4.07635261,0.0001625 L21.96635,0.0001625 C24.2172078,0.0001625 26.0422277,1.82225631 26.0422277,4.06950534 L26.0422277,21.9308197 Z" id="base" fill="url(#linearGradient-1)"></path>
                    <g id="ico" transform="translate(4.882979, 6.500000)" fill="#FFFFFF">
                        <g id="bubble">
                            <path d="M9.76595745,4.90529856 C9.76595745,2.19607033 7.57987956,0 4.88297872,0 C2.18607789,0 0,2.19607033 0,4.90529856 C0,7.33071749 1.75313826,9.34346236 4.05527756,9.73849422 L4.0766573,9.73849422 L4.0766573,9.74309653 L4.07818442,9.74309653 L4.07742086,9.74386358 C4.07742086,9.74386358 4.0766573,9.74923295 4.0766573,9.7515341 L4.0766573,13 C6.67124083,11.6561246 9.68501988,8.85715129 9.76595745,5.22822752 L9.75297689,5.2381992 C9.76061251,5.12851074 9.76595745,5.01728818 9.76595745,4.90529856" id="Fill-4"></path>
                            <path d="M16.2765957,4.90529856 C16.2765957,2.19607033 14.0905179,0 11.393617,0 C8.69671618,0 6.5106383,2.19607033 6.5106383,4.90529856 C6.5106383,7.33071749 8.26377655,9.34346236 10.5659159,9.73849422 L10.5872956,9.73849422 L10.5872956,9.74309653 L10.5895863,9.74309653 L10.5880592,9.74386358 C10.5880592,9.74386358 10.5872956,9.74923295 10.5872956,9.7515341 L10.5872956,13 C13.1818791,11.6561246 16.1948946,8.85715129 16.2765957,5.22822752 L16.2636152,5.2381992 C16.2712508,5.12851074 16.2765957,5.01728818 16.2765957,4.90529856" id="Fill-6" fill-opacity="0.6"></path>
                        </g>
                    </g>
                    <g id="text" transform="translate(32.553191, 5.687500)">
                        <g id="02" transform="translate(97.659574, 8.125000)" fill="#3DEDB5">
                            <path d="M1.24308919,4.34551 C1.51972621,4.34551 1.74987728,4.43174333 1.9317194,4.60551 C2.11447302,4.77841 2.20516621,4.99724333 2.20516621,5.26027667 C2.20516621,5.52417667 2.1121943,5.74474333 1.92579472,5.92111 C1.73985089,6.09877667 1.50787685,6.18717667 1.23032834,6.18717667 C0.954147064,6.18717667 0.723996,6.09704333 0.542153872,5.91591 C0.359400255,5.73564333 0.268251319,5.51291 0.268251319,5.24901 C0.268251319,4.99377667 0.361223234,4.77841 0.548078553,4.60551 C0.733566638,4.43174333 0.965540681,4.34551 1.24308919,4.34551" id="Fill-62"></path>
                            <path d="M6.2564174,2.02964667 L6.06682762,1.97374667 L5.88908719,1.91654667 C5.80112847,1.89444667 5.71772719,1.87538 5.63842762,1.86064667 C5.56003953,1.84504667 5.48848762,1.83768 5.42468336,1.83768 C5.2587923,1.83768 5.10566209,1.87148 4.96757145,1.93951333 C4.82948081,2.00668 4.71053145,2.10114667 4.61163485,2.22161333 C4.51228251,2.34208 4.43298294,2.48551333 4.37373613,2.65104667 C4.31403357,2.81658 4.28486591,2.99424667 4.28486591,3.18144667 C4.28486591,3.58141333 4.39515613,3.90858 4.61755953,4.16424667 C4.83905145,4.42078 5.12024591,4.54861333 5.46068719,4.54861333 C5.68217911,4.54861333 5.97613443,4.48881333 6.33936294,4.36834667 C6.52986421,4.30768 6.66430889,4.27734667 6.74360847,4.27734667 C6.92636209,4.27734667 7.08906294,4.35838 7.23125528,4.52088 C7.37435911,4.68294667 7.44454379,4.86494667 7.44454379,5.06904667 C7.44454379,5.23458 7.40307102,5.37498 7.32012549,5.49198 C7.23672421,5.60854667 7.10455826,5.71601333 6.92271613,5.81481333 C6.69256506,5.93484667 6.44281698,6.02888 6.17347187,6.09691333 C5.90458251,6.16408 5.64344081,6.19788 5.38913528,6.19788 C4.96164677,6.19788 4.57016209,6.12421333 4.213314,5.97818 C3.85646591,5.83128 3.55385145,5.62804667 3.30455911,5.36761333 C3.05481102,5.10848 2.85884081,4.79778 2.71664847,4.43551333 C2.57354464,4.07411333 2.50199272,3.67544667 2.50199272,3.23864667 C2.50199272,2.78624667 2.57354464,2.37631333 2.71664847,2.00668 C2.85884081,1.63791333 3.05481102,1.31984667 3.30455911,1.05248 C3.55385145,0.78468 3.85874464,0.579713333 4.21923868,0.43628 C4.57973272,0.293713333 4.98124379,0.222213333 5.42468336,0.222213333 C5.97978038,0.222213333 6.46605996,0.335313333 6.8867123,0.561513333 C7.22715357,0.74178 7.39714634,1.00178 7.39714634,1.34021333 C7.39714634,1.56641333 7.3324306,1.75491333 7.20117613,1.90571333 C7.0703774,2.05651333 6.90220762,2.13148 6.69621102,2.13148 C6.61691145,2.13148 6.53761187,2.11978 6.4583123,2.09768 L6.2564174,2.02964667 Z" id="Fill-64"></path>
                            <path d="M10.5214129,1.86051667 C10.1887192,1.86051667 9.91800689,1.98661667 9.70836434,2.23838333 C9.49735455,2.49101667 9.39298902,2.81645 9.39298902,3.21555 C9.39298902,3.61551667 9.49735455,3.93921667 9.70836434,4.18751667 C9.91800689,4.43581667 10.1887192,4.56061667 10.5214129,4.56061667 C10.8541065,4.56061667 11.1275533,4.43581667 11.3412975,4.18751667 C11.5550418,3.93921667 11.6621418,3.61941667 11.6621418,3.22768333 C11.6621418,2.82035 11.5550418,2.49101667 11.3412975,2.23838333 C11.1275533,1.98661667 10.8541065,1.86051667 10.5214129,1.86051667 M10.5214129,0.24505 C10.9575605,0.24505 11.3549699,0.31785 11.7154639,0.46475 C12.075958,0.612083333 12.3876873,0.815316667 12.6483733,1.07531667 C12.909515,1.33445 13.1118656,1.64731667 13.2549694,2.01305 C13.3971618,2.37791667 13.4687137,2.77875 13.4687137,3.21555 C13.4687137,3.65235 13.3971618,4.05405 13.2549694,4.41891667 C13.1118656,4.78421667 12.909515,5.09665 12.6483733,5.35665 C12.3876873,5.61621667 12.074135,5.81815 11.7095392,5.96071667 C11.3453992,6.10415 10.9447997,6.17608333 10.5100192,6.17608333 C10.0825307,6.17608333 9.68967881,6.10241667 9.33419796,5.95508333 C8.97734987,5.80818333 8.66789923,5.60495 8.40675753,5.34581667 C8.14561583,5.08538333 7.94372094,4.77468333 7.80061711,4.41371667 C7.65842477,4.05231667 7.58687285,3.65711667 7.58687285,3.22768333 C7.58687285,2.79088333 7.65842477,2.38745 7.80061711,2.01868333 C7.94372094,1.64905 8.14561583,1.33445 8.40675753,1.07531667 C8.66789923,0.815316667 8.97917285,0.612083333 9.33966689,0.46475 C9.69970519,0.31785 10.0939243,0.24505 10.5214129,0.24505" id="Fill-66"></path>
                            <path d="M13.8726858,1.21602 C13.8726858,0.922653333 13.9538083,0.692986667 14.1165092,0.527453333 C14.2778428,0.36192 14.5020692,0.278286667 14.7873654,0.278286667 C14.9847028,0.278286667 15.1410232,0.31772 15.2563266,0.39702 C15.3711743,0.475886667 15.4846547,0.613686667 15.5949449,0.809553333 C15.8323879,0.613686667 16.0725654,0.470253333 16.31411,0.38012 C16.5556547,0.29042 16.8263671,0.245353333 17.12807,0.245353333 C17.3099122,0.245353333 17.472613,0.254453333 17.6143496,0.272653333 C17.7574534,0.292153333 17.8918981,0.32812 18.0185951,0.38012 C18.1452922,0.432553333 18.2660645,0.500586667 18.3813679,0.583353333 C18.4962156,0.66612 18.6210896,0.771853333 18.7555343,0.899686667 C19.0408305,0.66612 19.3279496,0.498853333 19.6168917,0.39702 C19.9062896,0.29562 20.2243994,0.245353333 20.5730441,0.245353333 C20.8824947,0.245353333 21.1609547,0.292153333 21.4107028,0.385753333 C21.6599951,0.480653333 21.8746509,0.613686667 22.0523913,0.786586667 C22.2305875,0.960353333 22.3686781,1.16532 22.4684862,1.40278667 C22.5669271,1.63982 22.617059,1.90545333 22.617059,2.19882 L22.617059,5.20398667 C22.6248066,5.48998667 22.5477858,5.71792 22.3850849,5.88735333 C22.2228398,6.05722 22.0072726,6.14172 21.7374717,6.14172 C21.4599232,6.14172 21.2402543,6.05722 21.0780092,5.88735333 C20.9157641,5.71792 20.8341858,5.48998667 20.8341858,5.20398667 L20.8341858,2.76432 C20.8341858,2.42502 20.7617224,2.16935333 20.6149726,1.99558667 C20.4677671,1.82268667 20.2563015,1.73645333 19.9796645,1.73645333 C19.7098637,1.73645333 19.5020441,1.82442 19.35575,2.00122 C19.2090003,2.17845333 19.1356254,2.43238667 19.1356254,2.76432 L19.1356254,5.20398667 C19.1356254,5.48998667 19.0563258,5.71792 18.8977266,5.88735333 C18.7391275,6.05722 18.5217373,6.14172 18.2451003,6.14172 C17.9675517,6.14172 17.7469713,6.05895333 17.5856377,5.89385333 C17.4229369,5.72745333 17.3418143,5.49735333 17.3418143,5.20398667 L17.3295092,2.76432 C17.3295092,2.43238667 17.2588688,2.18062 17.1157649,2.00685333 C16.9735726,1.83395333 16.767576,1.74728667 16.4977751,1.74728667 C16.2288858,1.74728667 16.0210662,1.83568667 15.8743164,2.01292 C15.7271109,2.18972 15.6546475,2.44062 15.6546475,2.76432 L15.6546475,5.20398667 C15.6546475,5.48998667 15.5753479,5.71792 15.4167488,5.88735333 C15.2581496,6.05722 15.0444054,6.14172 14.7759717,6.14172 C14.4984232,6.14172 14.2778428,6.05722 14.1165092,5.88735333 C13.9538083,5.71792 13.8726858,5.48998667 13.8726858,5.20398667 L13.8726858,1.21602 Z" id="Fill-68"></path>
                        </g>
                        <g id="01" fill="#3ABCD9">
                            <path d="M3.26036122,12.430665 C3.26036122,12.9418087 3.12892465,13.33449 2.86605151,13.6087087 C2.60317837,13.8829275 2.23383427,14.0204025 1.75948776,14.0204025 C1.27265845,14.0204025 0.89744009,13.8829275 0.636035514,13.6087087 C0.373162374,13.33449 0.241725804,12.9418087 0.241725804,12.430665 L0.241725804,2.4344775 C0.241725804,1.935765 0.373162374,1.54600875 0.636035514,1.26594 C0.89744009,0.98514 1.27265845,0.84474 1.75948776,0.84474 C2.23383427,0.84474 2.60317837,0.982215 2.86605151,1.25643375 C3.12892465,1.5306525 3.26036122,1.92333375 3.26036122,2.4344775 L3.26036122,6.09219 L8.58758087,6.09219 L8.58758087,2.4344775 C8.58758087,1.935765 8.71901744,1.54600875 8.98189058,1.26594 C9.24329515,0.98514 9.61851352,0.84474 10.1053428,0.84474 C10.5796893,0.84474 10.9490334,0.982215 11.2119066,1.25643375 C11.4747797,1.5306525 11.6062163,1.92333375 11.6062163,2.4344775 L11.6062163,12.430665 C11.6062163,12.9418087 11.4747797,13.33449 11.2119066,13.6087087 C10.9490334,13.8829275 10.5796893,14.0204025 10.1053428,14.0204025 C9.61851352,14.0204025 9.24329515,13.8800025 8.98189058,13.5992025 C8.71901744,13.3176712 8.58758087,12.927915 8.58758087,12.430665 L8.58758087,8.83072125 L3.26036122,8.83072125 L3.26036122,12.430665 Z" id="Fill-8"></path>
                            <path d="M18.8549064,8.02641938 C18.6750072,6.91491938 18.0971269,6.36063188 17.1242025,6.36063188 C16.1879923,6.36063188 15.5733979,6.91491938 15.277482,8.02641938 L18.8549064,8.02641938 Z M15.4324156,10.0183444 C15.6872116,11.0018756 16.3554087,11.4925444 17.4326012,11.4925444 C17.6749144,11.4925444 17.8893249,11.4706069 18.0758327,11.4252694 C18.2616061,11.3799319 18.4884994,11.3068069 18.7594497,11.2058944 L19.0083715,11.0903569 L19.2198448,10.9748194 L19.4122268,10.8797569 L19.6229659,10.7832319 C19.906399,10.6428319 20.1553207,10.5726319 20.3741369,10.5726319 C20.6935498,10.5726319 20.9703743,10.7006006 21.200939,10.9565381 C21.432238,11.2117444 21.5467861,11.5049756 21.5467861,11.8369631 C21.5467861,12.3992944 21.1634906,12.8965444 20.3932283,13.3316381 C19.4445353,13.8537506 18.4121341,14.1155381 17.2974932,14.1155381 C16.5529307,14.1155381 15.8737194,13.9970756 15.2583907,13.7616131 C14.6437962,13.5261506 14.1143785,13.1956256 13.6716061,12.7751569 C13.2303024,12.3539569 12.8844553,11.8464694 12.6340649,11.2526944 C12.3836746,10.6589194 12.2588466,10.0059131 12.2588466,9.29001938 C12.2588466,8.51123813 12.3778004,7.79607563 12.6142393,7.14453188 C12.8521469,6.49445063 13.1818397,5.93504438 13.6047864,5.46923813 C14.0284674,5.00270063 14.5343881,4.64292563 15.124017,4.38771938 C15.7143801,4.13178188 16.3678915,4.00381313 17.0852856,4.00381313 C17.9443961,4.00381313 18.7080499,4.19540063 19.3747784,4.57930688 C20.0407727,4.96248188 20.5922188,5.51750063 21.0269141,6.24509438 C21.2464646,6.62826938 21.4153495,7.03703813 21.5372404,7.46993813 C21.6591313,7.90503188 21.7200768,8.34597563 21.7200768,8.79130688 C21.7200768,9.23883188 21.62976,9.55546313 21.4513294,9.74046938 C21.2714302,9.92474438 20.9630315,10.0183444 20.527602,10.0183444 L15.4324156,10.0183444 Z" id="Fill-10"></path>
                            <path d="M22.3744694,1.5914925 C22.3744694,1.09278 22.5015002,0.70448625 22.7577648,0.422955 C23.0147637,0.142155 23.366485,0.001755 23.8158659,0.001755 C24.2652468,0.001755 24.6169682,0.14508 24.873967,0.4331925 C25.1302316,0.72057375 25.2587311,1.10667375 25.2587311,1.5914925 L25.2587311,12.4308113 C25.2587311,12.91563 25.1331688,13.30173 24.8827784,13.58838 C24.6323881,13.8772238 24.2836039,14.0205488 23.8364259,14.0205488 C23.387045,14.0205488 23.0301837,13.8772238 22.7687791,13.58838 C22.5059059,13.30173 22.3744694,12.91563 22.3744694,12.4308113 L22.3744694,1.5914925 Z" id="Fill-12"></path>
                            <path d="M26.1444227,1.5914925 C26.1444227,1.09278 26.2714535,0.70448625 26.5277181,0.422955 C26.784717,0.142155 27.1364383,0.001755 27.5858192,0.001755 C28.0352001,0.001755 28.3869215,0.14508 28.6439203,0.4331925 C28.9001849,0.72057375 29.0286844,1.10667375 29.0286844,1.5914925 L29.0286844,12.4308113 C29.0286844,12.91563 28.9031221,13.30173 28.6527317,13.58838 C28.4023414,13.8772238 28.0535572,14.0205488 27.6063791,14.0205488 C27.1569982,14.0205488 26.8001369,13.8772238 26.5387324,13.58838 C26.2758592,13.30173 26.1444227,12.91563 26.1444227,12.4308113 L26.1444227,1.5914925 Z" id="Fill-14"></path>
                            <path d="M34.4307274,6.76252687 C33.8924983,6.76252687 33.4541317,6.97605187 33.1148931,7.40310187 C32.7734518,7.83161437 32.6045668,8.38297687 32.6045668,9.05938312 C32.6045668,9.73798312 32.7734518,10.2864206 33.1148931,10.7068894 C33.4541317,11.1280894 33.8924983,11.3394206 34.4307274,11.3394206 C34.9689565,11.3394206 35.4117288,11.1280894 35.7575759,10.7068894 C36.103423,10.2864206 36.2774479,9.74383312 36.2774479,9.07985812 C36.2774479,8.38955812 36.103423,7.83161437 35.7575759,7.40310187 C35.4117288,6.97605187 34.9689565,6.76252687 34.4307274,6.76252687 M34.4307274,4.02399562 C35.1363729,4.02399562 35.7796044,4.14757687 36.363359,4.39693312 C36.9471136,4.64628937 37.4508314,4.99070812 37.8737781,5.43165187 C38.2959906,5.87113312 38.6234806,6.40128937 38.8547796,7.02138937 C39.08461,7.64002687 39.2006266,8.31935812 39.2006266,9.05938312 C39.2006266,9.80013937 39.08461,10.4809331 38.8547796,11.0995706 C38.6234806,11.7182081 38.2959906,12.2483644 37.8737781,12.6893081 C37.4508314,13.1287894 36.9441765,13.4717456 36.3538133,13.7130581 C35.7641845,13.9565644 35.115813,14.0779519 34.4116361,14.0779519 C33.7199419,14.0779519 33.0847876,13.9536394 32.5091101,13.7042831 C31.9312297,13.4549269 31.430449,13.1105081 31.0082366,12.6710269 C30.5860242,12.2293519 30.2585342,11.7028519 30.0272352,11.0900644 C29.7966705,10.4780081 29.6813881,9.80745187 29.6813881,9.07985812 C29.6813881,8.33983312 29.7966705,7.65538312 30.0272352,7.03089562 C30.2585342,6.40421437 30.5860242,5.87113312 31.0082366,5.43165187 C31.430449,4.99070812 31.9349011,4.64628937 32.5186557,4.39693312 C33.1002075,4.14757687 33.7390333,4.02399562 34.4307274,4.02399562" id="Fill-16"></path>
                            <path d="M46.1426804,0.671945625 C46.8468573,0.671945625 47.501103,0.768470625 48.1032147,0.958595625 C48.7060606,1.15018312 49.148833,1.39953937 49.4307975,1.70666437 C49.6745793,1.96260187 49.7964702,2.26753312 49.7964702,2.62657687 C49.7964702,2.83059562 49.7641617,3.02510812 49.6995449,3.20938312 C49.6356623,3.39438937 49.5460798,3.55818937 49.4307975,3.69858937 C49.3147808,3.83898937 49.1862814,3.95087062 49.0452992,4.03350187 C48.9050512,4.11613312 48.7574604,4.15854562 48.6039954,4.15854562 C48.3726964,4.15854562 48.0848576,4.10077687 47.7390106,3.98523937 C47.0083995,3.73003312 46.3666365,3.60206437 45.8159247,3.60206437 C45.3665438,3.60206437 44.9597512,3.69858937 44.5948128,3.89017687 C44.2284059,4.08030187 43.9141329,4.35305812 43.6527284,4.70405812 C43.3898552,5.05432687 43.186459,5.47698937 43.0454767,5.96765812 C42.9044945,6.45832687 42.8347376,7.00383937 42.8347376,7.60419562 C42.8347376,8.14020187 42.911103,8.62940812 43.0660366,9.06888937 C43.2195017,9.50983312 43.430975,9.89373937 43.6997224,10.2191456 C43.9692041,10.5445519 44.2930227,10.7961019 44.6719125,10.9752581 C45.0485994,11.1544144 45.4620005,11.2428956 45.9113814,11.2428956 C46.4496105,11.2428956 47.0142737,11.1354019 47.6046369,10.9174894 C47.7970189,10.8407081 47.9468125,10.7800144 48.054752,10.7346769 C48.1648944,10.6915331 48.2566797,10.6586269 48.335248,10.6396144 C48.4116133,10.6213331 48.4762302,10.6089019 48.52763,10.6008581 C48.5775612,10.5950081 48.6355695,10.5913519 48.6994521,10.5913519 C49.0328163,10.5913519 49.317718,10.7346769 49.5556255,11.0235206 C49.7920645,11.3101706 49.9110182,11.6575144 49.9110182,12.0677456 C49.9110182,12.5394019 49.6995449,12.9415894 49.2773324,13.2735769 C48.9050512,13.5543769 48.4182219,13.7803331 47.8153759,13.9529081 C47.2132643,14.1247519 46.6170269,14.2117706 46.0266637,14.2117706 C45.0662222,14.2117706 44.1909574,14.0479706 43.402338,13.7225644 C42.6137186,13.3986206 41.9411158,12.9386644 41.3837954,12.3448894 C40.8250064,11.7511144 40.3932483,11.0330269 40.0848496,10.1898956 C39.776451,9.34822687 39.6229859,8.40783937 39.6229859,7.37458312 C39.6229859,6.36692062 39.776451,5.44700812 40.0848496,4.61630812 C40.3932483,3.78707062 40.8316149,3.08287687 41.4021525,2.50153312 C41.9719557,1.92018937 42.6592441,1.46973937 43.4603463,1.15018312 C44.25998,0.832820625 45.1550704,0.671945625 46.1426804,0.671945625" id="Fill-18"></path>
                            <path d="M54.892244,6.76252687 C54.3540149,6.76252687 53.9156482,6.97605187 53.5764097,7.40310187 C53.2349683,7.83161437 53.0660833,8.38297687 53.0660833,9.05938312 C53.0660833,9.73798312 53.2349683,10.2864206 53.5764097,10.7068894 C53.9156482,11.1280894 54.3540149,11.3394206 54.892244,11.3394206 C55.430473,11.3394206 55.8732454,11.1280894 56.2190925,10.7068894 C56.5649395,10.2864206 56.7389645,9.74383312 56.7389645,9.07985812 C56.7389645,8.38955812 56.5649395,7.83161437 56.2190925,7.40310187 C55.8732454,6.97605187 55.430473,6.76252687 54.892244,6.76252687 M54.892244,4.02399562 C55.5978895,4.02399562 56.2411209,4.14757687 56.8248755,4.39693312 C57.4086301,4.64628937 57.9123479,4.99070812 58.3352947,5.43165187 C58.7575071,5.87113312 59.0849971,6.40128937 59.3162961,7.02138937 C59.5461265,7.64002687 59.6621432,8.31935812 59.6621432,9.05938312 C59.6621432,9.80013937 59.5461265,10.4809331 59.3162961,11.0995706 C59.0849971,11.7182081 58.7575071,12.2483644 58.3352947,12.6893081 C57.9123479,13.1287894 57.405693,13.4717456 56.8153299,13.7130581 C56.225701,13.9565644 55.5773295,14.0779519 54.8731526,14.0779519 C54.1814585,14.0779519 53.5463041,13.9536394 52.9706266,13.7042831 C52.3927463,13.4549269 51.8919656,13.1105081 51.4697532,12.6710269 C51.0475407,12.2293519 50.7200507,11.7028519 50.4887517,11.0900644 C50.258187,10.4780081 50.1429047,9.80745187 50.1429047,9.07985812 C50.1429047,8.33983312 50.258187,7.65538312 50.4887517,7.03089562 C50.7200507,6.40421437 51.0475407,5.87113312 51.4697532,5.43165187 C51.8919656,4.99070812 52.3964177,4.64628937 52.9801723,4.39693312 C53.561724,4.14757687 54.2005498,4.02399562 54.892244,4.02399562" id="Fill-20"></path>
                            <path d="M60.3147,5.66996625 C60.3147,5.17271625 60.4461366,4.78296 60.7090098,4.50289125 C60.9704143,4.22209125 61.3331499,4.08022875 61.7950136,4.08022875 C62.1144265,4.08022875 62.367754,4.14457875 62.5542617,4.27181625 C62.7400352,4.399785 62.9236058,4.63671 63.1020365,4.98112875 C63.5117661,4.63671 63.9031387,4.39027875 64.2754199,4.24402875 C64.6462326,4.09777875 65.0831307,4.0239225 65.5839114,4.0239225 C66.6853351,4.0239225 67.5481171,4.31715375 68.1693201,4.90507875 C68.7919917,5.4922725 69.1018589,6.3024975 69.1018589,7.33575375 L69.1018589,12.4303725 C69.1018589,12.9151913 68.9733595,13.3020225 68.7170949,13.5886725 C68.4615645,13.876785 68.1083747,14.02011 67.6604623,14.02011 C67.2110814,14.02011 66.8527516,13.876785 66.5840042,13.5886725 C66.3130539,13.3020225 66.1786802,12.9151913 66.1786802,12.4303725 L66.1786802,8.2944225 C66.1786802,7.73209125 66.0545865,7.301385 65.8041961,7.00084125 C65.5538058,6.70176 65.1991473,6.55185375 64.7372836,6.55185375 C64.2754199,6.55185375 63.9031387,6.70761 63.6211742,7.02131625 C63.339944,7.33282875 63.1989618,7.75841625 63.1989618,8.2944225 L63.1989618,12.4303725 C63.1989618,12.9151913 63.0704623,13.3020225 62.8141977,13.5886725 C62.5571988,13.876785 62.2113518,14.02011 61.7766565,14.02011 C61.3272756,14.02011 60.9704143,13.876785 60.7090098,13.5886725 C60.4461366,13.3020225 60.3147,12.9151913 60.3147,12.4303725 L60.3147,5.66996625 Z" id="Fill-22"></path>
                            <path d="M71.9875158,11.0903569 L72.2173462,11.2058944 L72.4479109,11.3192381 C72.5903617,11.3960194 72.749701,11.4567131 72.9296002,11.5020506 C73.1080309,11.5466569 73.2754473,11.5685944 73.4289123,11.5685944 C73.929693,11.5685944 74.1786148,11.3770069 74.1786148,10.9938319 C74.1786148,10.8534319 74.1139979,10.7291194 73.9877013,10.6208944 C73.8592019,10.5119381 73.64626,10.4081006 73.3518127,10.3049944 C72.0066071,9.84503813 71.101971,9.43041938 70.6401073,9.05967563 C70.1143611,8.59971938 69.8529565,7.95036938 69.8529565,7.10723813 C69.8529565,6.65971313 69.9454761,6.24509438 70.1312496,5.86191938 C70.3162888,5.47801313 70.5725534,5.15114438 70.9000434,4.87546313 C71.2267991,4.60124438 71.6152345,4.38406313 72.0638811,4.22538188 C72.5117935,4.06450688 73.0000913,3.98553188 73.5258376,3.98553188 C73.9877013,3.98553188 74.4165223,4.03671938 74.8137692,4.13836313 C75.211016,4.24073813 75.5568631,4.37821313 75.8513104,4.54932563 C76.1472262,4.72263188 76.3770566,4.92665063 76.544473,5.16357563 C76.7104209,5.39903813 76.7948634,5.65716938 76.7948634,5.93796938 C76.7948634,6.11712563 76.7588835,6.28385063 76.6883924,6.43668188 C76.6179013,6.58951313 76.5275845,6.72698813 76.419645,6.84837563 C76.3095026,6.96976313 76.1817375,7.06482563 76.0341467,7.13502563 C75.8872902,7.20522563 75.7367623,7.23447563 75.5818287,7.22204438 C75.3909152,7.20961313 75.1596162,7.15184438 74.8901345,7.04946938 L74.3915567,6.81985688 L74.1411664,6.72333188 C73.8452505,6.59609438 73.5757688,6.53174438 73.3334556,6.53174438 C73.1535564,6.53174438 73.009637,6.57415688 72.9002289,6.65678813 C72.7915551,6.74088188 72.7372182,6.85130063 72.7372182,6.99170063 C72.7372182,7.13210063 72.8106465,7.25933813 72.957503,7.37487563 C73.1050937,7.49041313 73.3459384,7.61180063 73.6793027,7.73830688 C74.2175318,7.92989438 74.6889411,8.13098813 75.0920622,8.34085688 C75.4959176,8.55291938 75.8197362,8.74816313 76.0642523,8.92585688 C76.7045466,9.44943188 77.0246938,10.1397319 77.0246938,10.9938319 C77.0246938,11.4537881 76.9292371,11.8757194 76.7368551,12.2574319 C76.544473,12.6413381 76.2757256,12.9696694 75.9298786,13.2438881 C75.5818287,13.5181069 75.1750362,13.7367506 74.7072982,13.8954319 C74.2395602,14.0548444 73.7307024,14.1352819 73.178522,14.1352819 C72.7181269,14.1352819 72.2724174,14.0745881 71.8421278,13.9532006 C71.4133068,13.8318131 71.0314799,13.6724006 70.6981157,13.4749631 C70.3647514,13.2767944 70.0952697,13.0493756 69.8904049,12.7934381 C69.6855401,12.5396944 69.5834748,12.2779069 69.5834748,12.0095381 C69.5834748,11.8428131 69.6179861,11.6812069 69.6884772,11.5203319 C69.7589683,11.3616506 69.8529565,11.2212506 69.9675046,11.0998631 C70.0827869,10.9784756 70.2178949,10.8834131 70.3706257,10.8132131 C70.5255593,10.7430131 70.6856329,10.7071819 70.8530493,10.7071819 C71.1217967,10.7071819 71.416244,10.7898131 71.7371254,10.9565381 L71.9875158,11.0903569 Z" id="Fill-24"></path>
                            <path d="M77.6025007,5.66996625 C77.6025007,5.1851475 77.7295316,4.7990475 77.9857962,4.51166625 C78.2427951,4.22501625 78.5945164,4.08022875 79.0438973,4.08022875 C79.4932782,4.08022875 79.8449995,4.22501625 80.1019984,4.51166625 C80.358263,4.7990475 80.4867624,5.1851475 80.4867624,5.66996625 L80.4867624,9.84540375 C80.4867624,10.407735 80.6115905,10.834785 80.8605122,11.1280162 C81.1109026,11.4219787 81.4802467,11.56896 81.967076,11.56896 C82.4414225,11.56896 82.8107666,11.4161287 83.0736397,11.1090037 C83.3350443,10.8018787 83.4664809,10.38141 83.4664809,9.84540375 L83.4664809,5.66996625 C83.4664809,5.1851475 83.5979175,4.7990475 83.8607906,4.51166625 C84.1236637,4.22501625 84.480525,4.08022875 84.9277031,4.08022875 C85.3646012,4.08022875 85.7104482,4.22501625 85.9667128,4.51166625 C86.2237117,4.7990475 86.3522112,5.19172875 86.3522112,5.69044125 L86.3522112,10.5729975 C86.3522112,11.5170412 86.0687781,12.2965537 85.5055834,12.9093412 C85.1200851,13.3312725 84.6464729,13.636935 84.0825439,13.8285225 C83.5178807,14.02011 82.7997524,14.1151725 81.928159,14.1151725 C80.5308194,14.1151725 79.4602355,13.80951 78.7164073,13.1959912 C77.9733134,12.5832037 77.6025007,11.70936 77.6025007,10.5729975 L77.6025007,5.66996625 Z" id="Fill-26"></path>
                            <path d="M87.2753511,1.5914925 C87.2753511,1.09278 87.402382,0.70448625 87.6586466,0.422955 C87.9156455,0.142155 88.2673668,0.001755 88.7167477,0.001755 C89.1661286,0.001755 89.5178499,0.14508 89.7748488,0.4331925 C90.0311134,0.72057375 90.1596129,1.10667375 90.1596129,1.5914925 L90.1596129,12.4308113 C90.1596129,12.91563 90.0340506,13.30173 89.7836602,13.58838 C89.5332699,13.8772238 89.1844857,14.0205488 88.7373076,14.0205488 C88.2879267,14.0205488 87.9310654,13.8772238 87.6696609,13.58838 C87.4067877,13.30173 87.2753511,12.91563 87.2753511,12.4308113 L87.2753511,1.5914925 Z" id="Fill-28"></path>
                            <path d="M92.1971,6.99155437 C91.1580902,6.99155437 90.6396868,6.54549187 90.6396868,5.65117312 C90.6396868,4.74442312 91.1580902,4.29251062 92.1971,4.29251062 L92.4085733,4.29251062 L92.4085733,2.51118562 C92.4085733,2.02636687 92.5363385,1.63953562 92.7933374,1.35142312 C93.0503363,1.06477312 93.4020576,0.921448125 93.8514385,0.921448125 C94.2986165,0.921448125 94.6525407,1.06477312 94.9088053,1.35142312 C95.1643356,1.63953562 95.2928351,2.02636687 95.2928351,2.51118562 L95.2928351,4.29251062 L95.9859978,4.29251062 C97.0360218,4.29251062 97.561768,4.74442312 97.561768,5.65117312 C97.561768,6.54549187 97.0360218,6.99155437 95.9859978,6.99155437 L95.2928351,6.99155437 L95.2928351,12.4305919 C95.2928351,12.9154106 95.1643356,13.3015106 94.9088053,13.5888919 C94.6525407,13.8770044 94.2986165,14.0203294 93.8514385,14.0203294 C93.4020576,14.0203294 93.0503363,13.8770044 92.7933374,13.5888919 C92.5363385,13.3015106 92.4085733,12.9154106 92.4085733,12.4305919 L92.4085733,6.99155437 L92.1971,6.99155437 Z" id="Fill-30"></path>
                        </g>
                    </g>
                </g>
            </g>
        </g>
    </g>
</svg>