<svg xmlns="http://www.w3.org/2000/svg" width="124.215" height="38.744" viewBox="0 0 124.215 38.744"><defs><style>.a{fill:#0473bf;}.b{fill:#34c7d6;}.c{fill:none;}.d{fill:#006ab4;}</style></defs><g transform="translate(-113 -290)"><path class="a" d="M1.125,0H-2.293A1.116,1.116,0,0,0-3.432,1.139,11.394,11.394,0,0,0,7.963,12.534s-5.7,0-5.7-11.395A1.116,1.116,0,0,0,1.125,0" transform="translate(228.113 290)"/><path class="b" d="M3.095,1.688V5.106A1.116,1.116,0,0,1,1.956,6.246,11.394,11.394,0,0,1-9.439-5.149s0,5.7,11.395,5.7A1.116,1.116,0,0,1,3.095,1.688" transform="translate(234.12 296.288)"/><path class="b" d="M.137.685S-1.114,1.94.137,2.3L7.718,4.354l1.9,7.428s.471,1,1.612,0l2.417-2.418a1.115,1.115,0,0,0,0-1.611L4.166-1.732a1.116,1.116,0,0,0-1.612,0Z" transform="translate(218.494 296.802)"/><path class="a" d="M0,5.386H1.652V-1.967L5.8-6.363,13.9,5.386h1.465V4.732L6.886-7.515l7.7-8.257v-.656H13.275L1.652-3.9V-16.428H0ZM27.512,3.8c0,1.309.218,1.589,1.122,1.589h.436V-6.456c0-3.365-2.18-4.58-5.484-4.58a11.54,11.54,0,0,0-5.764,1.4v1.276h.655A7.992,7.992,0,0,1,23.523-9.79c2.368,0,3.989.9,3.989,3.427v2.931a16.891,16.891,0,0,0-4.269-.5c-3.8,0-6.513,1.5-6.513,4.768,0,3.053,2.214,4.7,5.236,4.7a6.921,6.921,0,0,0,5.547-2.369Zm-5.329.53C20,4.327,18.319,3.3,18.319.711c0-2.492,2.151-3.52,5.017-3.52a18.713,18.713,0,0,1,4.176.5V1.678a6.355,6.355,0,0,1-5.329,2.649M34.306-14.931c0-1.308-.093-1.5-1-1.5h-.56V5.386h.4c.624,0,1-.779,1.122-1.777a7.626,7.626,0,0,0,5.484,1.9c3.334,0,6.95-2.025,6.95-8.444,0-6.232-3.148-8.1-6.232-8.1a8.086,8.086,0,0,0-6.171,3.083Zm5.92,5.173c2.275,0,4.893,1.4,4.893,6.949,0,5.609-2.992,7.106-5.671,7.106a6.382,6.382,0,0,1-5.142-2.151v-8.57c1.4-1.681,3.3-3.333,5.92-3.333M51.082,5.386V-9.166c0-1.5-.125-1.684-1.06-1.684h-.5V5.386Zm-.748-18.728a1.05,1.05,0,0,0,1.058-1.06,1.069,1.069,0,0,0-1.058-1.06,1.069,1.069,0,0,0-1.058,1.06,1.05,1.05,0,0,0,1.058,1.06" transform="translate(113.028 313.899)"/><path class="b" d="M7.711,2.222c-.4.572-.687.481-.687.481-.613-.078-.517-.949-.447-1.418A3.222,3.222,0,0,1,7.1.278C7.81-.745,8.128-.293,8.206-.158a3.029,3.029,0,0,1-.5,2.381m14.073-1.13c.341-.355.971-.073,1.307.224a1.138,1.138,0,0,1,.335.934A3.5,3.5,0,0,1,22.1,4.484a14.056,14.056,0,0,1-1.73,1.309s.134-3.365,1.417-4.7m6.938,2.723c-.25-.089-.3.037-.373.112-.149.187-2.163,4.557-2.924,6.116-1.336,2.743-3.78,5.294-4.822,5.661a1.7,1.7,0,0,1-1.655-.4c-.523-.471-.485-2.5-.335-3.433q.223-1.456.559-2.8a2.924,2.924,0,0,1,.672-1.454c.335-.3.756-.659,1.231-1.045a13.324,13.324,0,0,0,3.1-3.32,1.96,1.96,0,0,0-.3-2.237A3.083,3.083,0,0,0,21.522-.1,2.253,2.253,0,0,0,19.658.981c-.548.771-1.832,2.866-2.04,3.176-.56.858-1.232,1.977-2.052,3.4a27.5,27.5,0,0,1-2.052,3.058,30.115,30.115,0,0,1-4.29,4.7c-.373.262-.837.506-1.138.363-.774-.368.677-6,.975-6.963.389-1.159,2.4-5.5,2.178-6.118-.267-.76-1.491-.447-1.716-.447-.258,0-.392-.174-.373-.3A4.423,4.423,0,0,0,8.89-.617a1.417,1.417,0,0,0-1.158-.709,2.526,2.526,0,0,0-1.491.783A2.88,2.88,0,0,0,5.159,1.511a2.054,2.054,0,0,0,.169.7,99.906,99.906,0,0,1-2.742,9.9A13.576,13.576,0,0,1,1.349,14.7c-.28.467-.449.5-.774.382-.341-.118-.339-.862-.368-1.794-.029-1.009,0-6.84-.311-8.593A2.351,2.351,0,0,0-1.531,2.808c-.356-.173-1.017-.289-1.182.351a15.092,15.092,0,0,0-.282,1.75,14.982,14.982,0,0,1-3.629,7.125c-.329.23-.547.279-.744.094s-.146-.961.076-2.315A19.7,19.7,0,0,1-6.2,5.959,6.594,6.594,0,0,1-3.51,2.692q.888-.378.964-.8c.077-.324-.166-.612-.676-.762A5.23,5.23,0,0,0-7.085,2.145,10.027,10.027,0,0,0-9.908,8.777,6.056,6.056,0,0,0-9.9,10.288a13.592,13.592,0,0,1-7.164,4.476,2.376,2.376,0,0,1-3.089-1.809C-22.589,1.933-15.2-3.438-14.424-3.774c.88-.364,1.714-.8,4.6,1.2a1.126,1.126,0,0,0,1.4-.243c.122-.183.652-1.1-.914-2.192a7.425,7.425,0,0,0-4.689-1.766,4.6,4.6,0,0,0-3.228,1.158,22.226,22.226,0,0,0-4.81,7.307c-.854,2.192-3.154,8.2.746,13.738.976,1.1,2.291,2.226,5.4,1.486a15.822,15.822,0,0,0,6.936-4.746,2.343,2.343,0,0,0,3.018.745A11.2,11.2,0,0,0-3.27,9.491c.114-.243.321-.266.337-.193.138.066-.112,3.628,1.678,6.886A2.306,2.306,0,0,0,.97,17.352c1.36-.1,2.51-3.532,2.735-4.043A44.974,44.974,0,0,0,5.82,3.161,2.39,2.39,0,0,0,7.808,4.2c.146-.031.149.112.074.335s-.276.732-.635,1.6a38.806,38.806,0,0,0-1.79,6.6,6.224,6.224,0,0,0,0,2.5,3.562,3.562,0,0,0,1.678,1.939,2.444,2.444,0,0,0,1.045.336c1.283.086,2.39-1.482,2.871-2.052,1-1.179,4.993-6.917,5.217-7.281a11.325,11.325,0,0,0-.117,5.523,4.754,4.754,0,0,0,2.386,3.208,3.235,3.235,0,0,0,2.388.3c2.125-.486,4.439-4.14,5.41-6.192a39.452,39.452,0,0,0,2.507-6.541c.108-.408.1-.572-.121-.659" transform="translate(191.249 301.896)"/><path class="b" d="M.685.416A.336.336,0,0,0,.3.077H-.327V.754H.3c.218,0,.381-.1.381-.339M1.1.405a.677.677,0,0,1-.509.7l.491.964H.6L.134,1.15H-.327v.92H-.733V-.317H.316A.7.7,0,0,1,1.1.405m.837.514A1.8,1.8,0,0,0,.1-.916,1.8,1.8,0,0,0-1.738.919,1.8,1.8,0,0,0,.1,2.755,1.8,1.8,0,0,0,1.933.919m.352,0A2.144,2.144,0,0,1,.1,3.106,2.145,2.145,0,0,1-2.09.919,2.145,2.145,0,0,1,.1-1.268,2.144,2.144,0,0,1,2.285.919" transform="translate(219.836 316.344)"/><path class="c" d="M0,9.567H124.214V-29.177H0Z" transform="translate(113 319.177)"/><path class="d" d="M0,0V3.326H2.151v-.49H.494V0Z" transform="translate(113 324.501)"/><path class="d" d="M.016,0-.05,1.192H.277L.638,0Z" transform="translate(115.093 324.501)"/><path class="d" d="M.382.629V.382A1.1,1.1,0,0,1,.078.6.856.856,0,0,1-.3.681,1.079,1.079,0,0,1-.608.636.782.782,0,0,1-.886.491a.734.734,0,0,1-.2-.262A.865.865,0,0,1-1.166-.16.8.8,0,0,1-1.09-.52.7.7,0,0,1-.882-.772.906.906,0,0,1-.567-.919,1.529,1.529,0,0,1-.173-.967a1.4,1.4,0,0,1,.555.094v-.185a.4.4,0,0,0-.121-.313A.5.5,0,0,0-.088-1.48a1.539,1.539,0,0,0-.349.037,1.209,1.209,0,0,0-.3.12l-.19-.372a1.591,1.591,0,0,1,.384-.166,1.8,1.8,0,0,1,.471-.057A1.047,1.047,0,0,1,.6-1.711a.757.757,0,0,1,.259.629V.629Zm0-1.064A.857.857,0,0,0,.147-.516,1.6,1.6,0,0,0-.187-.544a.622.622,0,0,0-.376.1A.315.315,0,0,0-.7-.174a.4.4,0,0,0,.12.3A.5.5,0,0,0-.221.24a.652.652,0,0,0,.359-.1A.824.824,0,0,0,.382-.079Z" transform="translate(117.054 327.198)"/><path class="d" d="M.416.19a1.178,1.178,0,0,0-.3-.23A.679.679,0,0,0-.192-.113.5.5,0,0,0-.619.107,1.03,1.03,0,0,0-.776.712a1.435,1.435,0,0,0,.039.341.82.82,0,0,0,.114.266.54.54,0,0,0,.187.173.512.512,0,0,0,.259.062.542.542,0,0,0,.3-.078,1.59,1.59,0,0,0,.268-.231L.7,1.554a1.809,1.809,0,0,1-.157.178,1.07,1.07,0,0,1-.193.147,1.008,1.008,0,0,1-.24.1,1.108,1.108,0,0,1-.3.037,1,1,0,0,1-.425-.092,1.008,1.008,0,0,1-.341-.262,1.258,1.258,0,0,1-.228-.406A1.589,1.589,0,0,1-1.27.727,1.65,1.65,0,0,1-1.184.176a1.258,1.258,0,0,1,.232-.41A.975.975,0,0,1-.6-.491,1.049,1.049,0,0,1-.177-.58a1.087,1.087,0,0,1,.491.108,1.2,1.2,0,0,1,.392.316Z" transform="translate(119.68 325.86)"/><path class="d" d="M.416.19a1.16,1.16,0,0,0-.3-.23A.669.669,0,0,0-.192-.113.5.5,0,0,0-.619.107,1.03,1.03,0,0,0-.776.712a1.435,1.435,0,0,0,.039.341.82.82,0,0,0,.114.266.54.54,0,0,0,.187.173.512.512,0,0,0,.259.062.535.535,0,0,0,.3-.078,1.542,1.542,0,0,0,.27-.231L.7,1.554a1.809,1.809,0,0,1-.157.178,1.07,1.07,0,0,1-.193.147,1.008,1.008,0,0,1-.24.1,1.108,1.108,0,0,1-.3.037,1,1,0,0,1-.425-.092,1.008,1.008,0,0,1-.341-.262,1.258,1.258,0,0,1-.228-.406A1.589,1.589,0,0,1-1.27.727,1.65,1.65,0,0,1-1.184.176a1.258,1.258,0,0,1,.232-.41A.975.975,0,0,1-.6-.491,1.049,1.049,0,0,1-.177-.58a1.087,1.087,0,0,1,.491.108,1.2,1.2,0,0,1,.392.316Z" transform="translate(121.988 325.86)"/><path class="d" d="M.549.318A1.672,1.672,0,0,1,.464.871a1.2,1.2,0,0,1-.238.413,1.02,1.02,0,0,1-.356.256,1.1,1.1,0,0,1-.447.088,1.034,1.034,0,0,1-.437-.092,1.031,1.031,0,0,1-.347-.264A1.26,1.26,0,0,1-1.592.865,1.635,1.635,0,0,1-1.674.332a1.624,1.624,0,0,1,.085-.546,1.233,1.233,0,0,1,.235-.412A.994.994,0,0,1-1-.881a1.087,1.087,0,0,1,.44-.088A1.052,1.052,0,0,1-.12-.876a1.045,1.045,0,0,1,.353.259,1.153,1.153,0,0,1,.232.405,1.607,1.607,0,0,1,.084.53M.055.332A1.007,1.007,0,0,0-.114-.279.551.551,0,0,0-.581-.5a.508.508,0,0,0-.44.224,1.018,1.018,0,0,0-.159.6.993.993,0,0,0,.171.629.545.545,0,0,0,.45.216A.494.494,0,0,0-.306,1.1a.654.654,0,0,0,.2-.178A.867.867,0,0,0,.012.655,1.207,1.207,0,0,0,.055.332" transform="translate(124.701 326.25)"/><path class="d" d="M.715.629V-.779A.888.888,0,0,0,.6-1.309a.427.427,0,0,0-.36-.153A.408.408,0,0,0-.124-1.3a.812.812,0,0,0-.116.469V.629H-.733V-.779a.888.888,0,0,0-.118-.53.427.427,0,0,0-.36-.153.408.408,0,0,0-.361.166.812.812,0,0,0-.116.469V.629h-.494v-2.49h.494l-.005.236a.659.659,0,0,1,.247-.216A.773.773,0,0,1-1.1-1.918a.841.841,0,0,1,.421.094.7.7,0,0,1,.264.276A1.205,1.205,0,0,1-.275-1.7a.914.914,0,0,1,.165-.116.782.782,0,0,1,.2-.073,1.074,1.074,0,0,1,.259-.028A.759.759,0,0,1,1-1.638a1.394,1.394,0,0,1,.21.838V.629Z" transform="translate(127.945 327.198)"/><path class="d" d="M.517.331A1.7,1.7,0,0,1,.436.889,1.168,1.168,0,0,1,.22,1.28a.837.837,0,0,1-.313.232.921.921,0,0,1-.373.077A.77.77,0,0,1-.822,1.5a.994.994,0,0,1-.271-.2v.9l-.485.252v-3.4h.485v.236A1.486,1.486,0,0,1-.8-.925a.745.745,0,0,1,.356-.084.941.941,0,0,1,.376.076A.808.808,0,0,1,.24-.7a1.216,1.216,0,0,1,.2.416A2.218,2.218,0,0,1,.517.331M.023.345A1.249,1.249,0,0,0-.121-.341.47.47,0,0,0-.534-.554a.569.569,0,0,0-.323.1.989.989,0,0,0-.24.22V.808a.8.8,0,0,0,.1.113.822.822,0,0,0,.137.1A.749.749,0,0,0-.7,1.1a.544.544,0,0,0,.181.032.462.462,0,0,0,.4-.2A1.049,1.049,0,0,0,.023.345" transform="translate(131.34 326.29)"/><path class="d" d="M.382.629V.382A1.1,1.1,0,0,1,.078.6.856.856,0,0,1-.3.681,1.079,1.079,0,0,1-.608.636.782.782,0,0,1-.886.491a.734.734,0,0,1-.2-.262A.865.865,0,0,1-1.166-.16.8.8,0,0,1-1.09-.52.7.7,0,0,1-.882-.772.906.906,0,0,1-.567-.919,1.529,1.529,0,0,1-.173-.967a1.4,1.4,0,0,1,.555.094v-.185a.4.4,0,0,0-.121-.313A.5.5,0,0,0-.088-1.48a1.539,1.539,0,0,0-.349.037,1.209,1.209,0,0,0-.3.12l-.19-.372a1.591,1.591,0,0,1,.384-.166,1.8,1.8,0,0,1,.471-.057A1.047,1.047,0,0,1,.6-1.711a.757.757,0,0,1,.259.629V.629Zm0-1.064A.857.857,0,0,0,.147-.516,1.6,1.6,0,0,0-.187-.544a.622.622,0,0,0-.376.1A.315.315,0,0,0-.7-.174a.4.4,0,0,0,.12.3A.5.5,0,0,0-.221.24a.652.652,0,0,0,.359-.1A.824.824,0,0,0,.382-.079Z" transform="translate(133.389 327.198)"/><path class="d" d="M.5.693a.809.809,0,0,1-.193.353.859.859,0,0,1-.364.219,2,2,0,0,1-.564.085L-.783.98A2.3,2.3,0,0,0-.357.923.591.591,0,0,0-.1.792.477.477,0,0,0,.031.568,1.329,1.329,0,0,0,.066.236V.194A1.612,1.612,0,0,1-.226.4.725.725,0,0,1-.578.486.934.934,0,0,1-.952.41a.776.776,0,0,1-.3-.238,1.2,1.2,0,0,1-.2-.416,2.155,2.155,0,0,1-.076-.611,1.747,1.747,0,0,1,.081-.555A1.136,1.136,0,0,1-1.236-1.8a.906.906,0,0,1,.312-.234.948.948,0,0,1,.37-.076A.746.746,0,0,1-.2-2.025a.878.878,0,0,1,.266.2v-.232H.56V.2A1.888,1.888,0,0,1,.5.693M.076-1.33a.739.739,0,0,0-.1-.114.9.9,0,0,0-.137-.1.793.793,0,0,0-.162-.078A.51.51,0,0,0-.5-1.656a.456.456,0,0,0-.4.2,1.046,1.046,0,0,0-.137.592A1.252,1.252,0,0,0-.9-.184.469.469,0,0,0-.485.03a.574.574,0,0,0,.32-.1.989.989,0,0,0,.24-.22Z" transform="translate(136.289 327.393)"/><path class="d" d="M.373.629V-.779a.805.805,0,0,0-.134-.53.469.469,0,0,0-.374-.153A.45.45,0,0,0-.512-1.3a.738.738,0,0,0-.131.469V.629h-.494v-2.49h.494l-.005.236a.629.629,0,0,1,.264-.216.87.87,0,0,1,.363-.077.8.8,0,0,1,.663.28A1.32,1.32,0,0,1,.867-.8V.629Z" transform="translate(138.618 327.198)"/><path class="d" d="M.529.309c0,.044,0,.086,0,.125S.518.507.514.532H-1.134A1.057,1.057,0,0,0-1.058.84a.672.672,0,0,0,.143.211.549.549,0,0,0,.19.125.633.633,0,0,0,.218.04.778.778,0,0,0,.288-.052,1.153,1.153,0,0,0,.254-.147l.289.313a1.231,1.231,0,0,1-.37.242,1.257,1.257,0,0,1-.489.085A1.03,1.03,0,0,1-.95,1.572a.955.955,0,0,1-.344-.252A1.207,1.207,0,0,1-1.528.912,1.65,1.65,0,0,1-1.613.361a1.789,1.789,0,0,1,.08-.56,1.173,1.173,0,0,1,.224-.406.934.934,0,0,1,.344-.25A1.126,1.126,0,0,1-.52-.942a1.013,1.013,0,0,1,.462.1A.932.932,0,0,1,.27-.57a1.151,1.151,0,0,1,.2.4A1.78,1.78,0,0,1,.529.309M-.01-.115a.575.575,0,0,0-.106-.2A.516.516,0,0,0-.294-.449.615.615,0,0,0-.555-.5a.493.493,0,0,0-.392.163.83.83,0,0,0-.178.463H.035A1.08,1.08,0,0,0-.01-.115" transform="translate(141.593 326.222)"/><path class="d" d="M.715.629V-.779A.888.888,0,0,0,.6-1.309a.425.425,0,0,0-.36-.153A.408.408,0,0,0-.124-1.3a.812.812,0,0,0-.116.469V.629H-.733V-.779a.888.888,0,0,0-.118-.53.427.427,0,0,0-.36-.153.408.408,0,0,0-.361.166.812.812,0,0,0-.116.469V.629h-.494v-2.49h.494l-.005.236a.659.659,0,0,1,.247-.216A.773.773,0,0,1-1.1-1.918a.841.841,0,0,1,.421.094.7.7,0,0,1,.264.276A1.205,1.205,0,0,1-.275-1.7a.869.869,0,0,1,.165-.116.782.782,0,0,1,.2-.073,1.074,1.074,0,0,1,.259-.028A.759.759,0,0,1,1-1.638a1.394,1.394,0,0,1,.21.838V.629Z" transform="translate(144.822 327.198)"/><path class="d" d="M.529.309c0,.044,0,.086,0,.125S.518.507.514.532H-1.134A1.057,1.057,0,0,0-1.058.84a.672.672,0,0,0,.143.211.549.549,0,0,0,.19.125.633.633,0,0,0,.218.04.778.778,0,0,0,.288-.052,1.153,1.153,0,0,0,.254-.147l.289.313a1.231,1.231,0,0,1-.37.242,1.257,1.257,0,0,1-.489.085A1.03,1.03,0,0,1-.95,1.572a.955.955,0,0,1-.344-.252A1.207,1.207,0,0,1-1.528.912,1.65,1.65,0,0,1-1.613.361,1.749,1.749,0,0,1-1.532-.2a1.15,1.15,0,0,1,.223-.406.934.934,0,0,1,.344-.25A1.126,1.126,0,0,1-.52-.942a1.009,1.009,0,0,1,.462.1A.932.932,0,0,1,.27-.57a1.151,1.151,0,0,1,.2.4A1.78,1.78,0,0,1,.529.309M-.01-.115a.575.575,0,0,0-.106-.2A.516.516,0,0,0-.294-.449.615.615,0,0,0-.555-.5a.493.493,0,0,0-.392.163.83.83,0,0,0-.178.463H.035A1.01,1.01,0,0,0-.01-.115" transform="translate(148.133 326.222)"/><path class="d" d="M.373.629V-.779a.805.805,0,0,0-.134-.53.469.469,0,0,0-.374-.153A.45.45,0,0,0-.512-1.3a.738.738,0,0,0-.131.469V.629h-.494v-2.49h.494l-.005.236a.629.629,0,0,1,.264-.216.87.87,0,0,1,.363-.077.8.8,0,0,1,.663.28A1.32,1.32,0,0,1,.867-.8V.629Z" transform="translate(150.318 327.198)"/><path class="d" d="M.345.84A.875.875,0,0,1,.134.923,1.128,1.128,0,0,1-.134.954.537.537,0,0,1-.546.793.719.719,0,0,1-.7.294V-1.145h-.356v-.446H-.7V-2.3l.481-.256v.969H.4v.446H-.215V.208A.355.355,0,0,0-.157.445a.262.262,0,0,0,.2.062A.63.63,0,0,0,.235.476.739.739,0,0,0,.4.407Z" transform="translate(152.622 326.925)"/><path class="d" d="M.4.854V.616A1.433,1.433,0,0,1,.1.825.741.741,0,0,1-.253.909.923.923,0,0,1-.629.833.781.781,0,0,1-.934.6a1.163,1.163,0,0,1-.2-.414A2.218,2.218,0,0,1-1.212-.43a1.743,1.743,0,0,1,.08-.555,1.185,1.185,0,0,1,.216-.4A.867.867,0,0,1-.6-1.613a.947.947,0,0,1,.373-.076A.75.75,0,0,1,.127-1.6.925.925,0,0,1,.4-1.4v-.952l.485-.252V.854ZM.4-.907a.911.911,0,0,0-.1-.114,1,1,0,0,0-.137-.1A.768.768,0,0,0,0-1.2.513.513,0,0,0-.18-1.233a.456.456,0,0,0-.4.2,1.035,1.035,0,0,0-.137.592A1.254,1.254,0,0,0-.575.241.47.47,0,0,0-.16.453a.568.568,0,0,0,.321-.1A1.019,1.019,0,0,0,.4.137Z" transform="translate(155.893 326.97)"/><path class="d" d="M.529.309c0,.044,0,.086,0,.125S.518.507.514.532H-1.134A1.057,1.057,0,0,0-1.058.84a.672.672,0,0,0,.143.211.549.549,0,0,0,.19.125.633.633,0,0,0,.218.04.778.778,0,0,0,.288-.052,1.153,1.153,0,0,0,.254-.147l.289.313a1.231,1.231,0,0,1-.37.242,1.257,1.257,0,0,1-.489.085A1.03,1.03,0,0,1-.95,1.572a.955.955,0,0,1-.344-.252A1.207,1.207,0,0,1-1.528.912,1.65,1.65,0,0,1-1.613.361,1.749,1.749,0,0,1-1.532-.2a1.15,1.15,0,0,1,.223-.406.934.934,0,0,1,.344-.25A1.126,1.126,0,0,1-.52-.942a1.009,1.009,0,0,1,.462.1A.932.932,0,0,1,.27-.57a1.151,1.151,0,0,1,.2.4A1.78,1.78,0,0,1,.529.309M-.01-.115a.575.575,0,0,0-.106-.2A.516.516,0,0,0-.294-.449.615.615,0,0,0-.555-.5a.493.493,0,0,0-.392.163.83.83,0,0,0-.178.463H.035A1.08,1.08,0,0,0-.01-.115" transform="translate(158.901 326.222)"/><path class="d" d="M.467.46A.706.706,0,0,1,.389.808a.641.641,0,0,1-.206.227.862.862,0,0,1-.3.122A1.532,1.532,0,0,1-.468,1.2a1.526,1.526,0,0,1-.511-.09A1.71,1.71,0,0,1-1.424.877L-1.2.506A1.409,1.409,0,0,0-.837.692,1.164,1.164,0,0,0-.473.755c.3,0,.455-.093.455-.276A.258.258,0,0,0-.172.25,3.689,3.689,0,0,0-.6.06a2.62,2.62,0,0,1-.34-.154,1,1,0,0,1-.228-.169.523.523,0,0,1-.125-.2.77.77,0,0,1-.039-.259.668.668,0,0,1,.061-.295.586.586,0,0,1,.177-.214A.775.775,0,0,1-.82-1.359,1.257,1.257,0,0,1-.479-1.4a1.449,1.449,0,0,1,.459.076,1.455,1.455,0,0,1,.386.2L.154-.751A1.149,1.149,0,0,0-.155-.913,1.04,1.04,0,0,0-.493-.965.412.412,0,0,0-.753-.9a.2.2,0,0,0-.081.163.222.222,0,0,0,.019.089.278.278,0,0,0,.072.082A.857.857,0,0,0-.6-.479c.06.031.137.065.231.1.139.053.262.106.365.155a1.126,1.126,0,0,1,.264.166A.592.592,0,0,1,.415.161a.767.767,0,0,1,.052.3" transform="translate(161.177 326.683)"/><path class="d" d="M.517.331A1.7,1.7,0,0,1,.436.889a1.189,1.189,0,0,1-.215.392.842.842,0,0,1-.315.232.921.921,0,0,1-.373.077A.77.77,0,0,1-.822,1.5a1.015,1.015,0,0,1-.271-.2v.9l-.485.252v-3.4h.485v.236A1.486,1.486,0,0,1-.8-.925a.747.747,0,0,1,.357-.084.939.939,0,0,1,.374.076A.808.808,0,0,1,.24-.7a1.216,1.216,0,0,1,.2.416A2.218,2.218,0,0,1,.517.331M.023.345A1.249,1.249,0,0,0-.121-.341.47.47,0,0,0-.534-.554a.572.572,0,0,0-.323.1.989.989,0,0,0-.24.22V.808a.8.8,0,0,0,.1.113.822.822,0,0,0,.137.1A.749.749,0,0,0-.7,1.1a.544.544,0,0,0,.181.032.462.462,0,0,0,.4-.2A1.049,1.049,0,0,0,.023.345" transform="translate(164.951 326.29)"/><path class="d" d="M.382.629V.382A1.1,1.1,0,0,1,.078.6.856.856,0,0,1-.3.681,1.079,1.079,0,0,1-.608.636.782.782,0,0,1-.886.491a.734.734,0,0,1-.2-.262A.865.865,0,0,1-1.166-.16.8.8,0,0,1-1.09-.52.7.7,0,0,1-.882-.772.906.906,0,0,1-.567-.919,1.529,1.529,0,0,1-.173-.967a1.4,1.4,0,0,1,.555.094v-.185a.4.4,0,0,0-.121-.313A.5.5,0,0,0-.088-1.48a1.539,1.539,0,0,0-.349.037,1.209,1.209,0,0,0-.3.12l-.19-.372a1.591,1.591,0,0,1,.384-.166,1.8,1.8,0,0,1,.471-.057A1.047,1.047,0,0,1,.6-1.711a.757.757,0,0,1,.259.629V.629Zm0-1.064A.857.857,0,0,0,.147-.516,1.6,1.6,0,0,0-.187-.544a.622.622,0,0,0-.376.1A.315.315,0,0,0-.7-.174a.4.4,0,0,0,.12.3A.5.5,0,0,0-.221.24a.652.652,0,0,0,.359-.1A.824.824,0,0,0,.382-.079Z" transform="translate(167 327.198)"/><path class="d" d="M.345.84A.875.875,0,0,1,.134.923,1.128,1.128,0,0,1-.134.954.537.537,0,0,1-.546.793.719.719,0,0,1-.7.294V-1.145h-.356v-.446H-.7V-2.3l.481-.256v.969H.4v.446H-.215V.208A.355.355,0,0,0-.157.445a.262.262,0,0,0,.2.062A.63.63,0,0,0,.235.476.739.739,0,0,0,.4.407Z" transform="translate(169.322 326.925)"/><path class="d" d="M.156.079A.3.3,0,0,1,.063.3a.3.3,0,0,1-.22.093A.3.3,0,0,1-.383.3.3.3,0,0,1-.476.079.3.3,0,0,1-.383-.147.309.309,0,0,1-.157-.24a.3.3,0,0,1,.22.093A.3.3,0,0,1,.156.079M-.4.715H.09V3.209H-.4Zm0,2.494" transform="translate(170.727 324.618)"/><path class="d" d="M.529.309c0,.044,0,.086,0,.125S.518.507.514.532H-1.134A1.057,1.057,0,0,0-1.058.84a.672.672,0,0,0,.143.211.549.549,0,0,0,.19.125.633.633,0,0,0,.218.04.778.778,0,0,0,.288-.052,1.153,1.153,0,0,0,.254-.147l.289.313a1.231,1.231,0,0,1-.37.242,1.257,1.257,0,0,1-.489.085A1.03,1.03,0,0,1-.95,1.572a.955.955,0,0,1-.344-.252A1.207,1.207,0,0,1-1.528.912,1.65,1.65,0,0,1-1.613.361,1.749,1.749,0,0,1-1.532-.2a1.15,1.15,0,0,1,.223-.406.934.934,0,0,1,.344-.25A1.126,1.126,0,0,1-.52-.942a1.009,1.009,0,0,1,.462.1A.932.932,0,0,1,.27-.57a1.151,1.151,0,0,1,.2.4A1.78,1.78,0,0,1,.529.309M-.01-.115a.575.575,0,0,0-.106-.2A.516.516,0,0,0-.294-.449.615.615,0,0,0-.555-.5a.493.493,0,0,0-.392.163.82.82,0,0,0-.178.463H.035A1.08,1.08,0,0,0-.01-.115" transform="translate(172.962 326.222)"/><path class="d" d="M.373.629V-.779a.805.805,0,0,0-.134-.53.469.469,0,0,0-.374-.153A.45.45,0,0,0-.512-1.3a.738.738,0,0,0-.131.469V.629h-.494v-2.49h.494l-.005.236a.629.629,0,0,1,.264-.216.87.87,0,0,1,.363-.077.8.8,0,0,1,.663.28A1.32,1.32,0,0,1,.867-.8V.629Z" transform="translate(175.146 327.198)"/><path class="d" d="M.345.84A.875.875,0,0,1,.134.923,1.128,1.128,0,0,1-.134.954.537.537,0,0,1-.546.793.719.719,0,0,1-.7.294V-1.145h-.356v-.446H-.7V-2.3l.481-.256v.969H.4v.446H-.215V.208A.355.355,0,0,0-.157.445a.262.262,0,0,0,.2.062A.63.63,0,0,0,.235.476.739.739,0,0,0,.4.407Z" transform="translate(177.454 326.925)"/><path class="d" d="M.467.46A.706.706,0,0,1,.389.808a.641.641,0,0,1-.206.227.862.862,0,0,1-.3.122A1.532,1.532,0,0,1-.468,1.2a1.532,1.532,0,0,1-.511-.09A1.71,1.71,0,0,1-1.424.877L-1.2.506A1.381,1.381,0,0,0-.837.692,1.164,1.164,0,0,0-.473.755c.3,0,.455-.093.455-.276A.258.258,0,0,0-.172.25,3.689,3.689,0,0,0-.6.06a2.62,2.62,0,0,1-.34-.154,1,1,0,0,1-.228-.169.539.539,0,0,1-.125-.2.805.805,0,0,1-.039-.259.668.668,0,0,1,.061-.295.586.586,0,0,1,.177-.214A.775.775,0,0,1-.82-1.359,1.257,1.257,0,0,1-.479-1.4a1.449,1.449,0,0,1,.459.076,1.455,1.455,0,0,1,.386.2L.154-.751A1.149,1.149,0,0,0-.155-.913,1.037,1.037,0,0,0-.492-.965.414.414,0,0,0-.753-.9a.2.2,0,0,0-.081.163.222.222,0,0,0,.019.089.278.278,0,0,0,.072.082A.857.857,0,0,0-.6-.479c.06.031.137.065.231.1.139.053.262.106.365.155a1.126,1.126,0,0,1,.264.166A.592.592,0,0,1,.415.161a.767.767,0,0,1,.052.3" transform="translate(179.669 326.683)"/><path class="d" d="M.517.331A1.7,1.7,0,0,1,.436.889a1.166,1.166,0,0,1-.215.392.842.842,0,0,1-.315.232.921.921,0,0,1-.373.077A.77.77,0,0,1-.822,1.5a.994.994,0,0,1-.271-.2v.9l-.485.252v-3.4h.485v.236A1.486,1.486,0,0,1-.8-.925a.745.745,0,0,1,.356-.084.941.941,0,0,1,.376.076A.808.808,0,0,1,.24-.7a1.192,1.192,0,0,1,.2.416A2.218,2.218,0,0,1,.517.331M.023.345A1.249,1.249,0,0,0-.121-.341.47.47,0,0,0-.534-.554a.572.572,0,0,0-.323.1.989.989,0,0,0-.24.22V.808a.8.8,0,0,0,.1.113.822.822,0,0,0,.137.1A.749.749,0,0,0-.7,1.1a.544.544,0,0,0,.181.032.462.462,0,0,0,.4-.2A1.038,1.038,0,0,0,.023.345" transform="translate(183.442 326.29)"/><path class="d" d="M.382.629V.382A1.091,1.091,0,0,1,.08.6.861.861,0,0,1-.3.681,1.064,1.064,0,0,1-.607.636.777.777,0,0,1-.886.491a.75.75,0,0,1-.2-.262A.865.865,0,0,1-1.166-.16.8.8,0,0,1-1.09-.52a.706.706,0,0,1,.21-.252A.9.9,0,0,1-.567-.919,1.536,1.536,0,0,1-.173-.967a1.391,1.391,0,0,1,.555.094v-.185a.4.4,0,0,0-.121-.313A.5.5,0,0,0-.088-1.48a1.548,1.548,0,0,0-.349.037,1.229,1.229,0,0,0-.3.12l-.19-.372a1.6,1.6,0,0,1,.385-.166,1.787,1.787,0,0,1,.47-.057A1.054,1.054,0,0,1,.6-1.711a.761.761,0,0,1,.259.629V.629Zm0-1.064A.857.857,0,0,0,.147-.516,1.6,1.6,0,0,0-.187-.544a.624.624,0,0,0-.376.1A.315.315,0,0,0-.7-.174a.4.4,0,0,0,.12.3A.506.506,0,0,0-.221.24a.652.652,0,0,0,.359-.1A.824.824,0,0,0,.382-.079Z" transform="translate(185.491 327.198)"/><path class="d" d="M.335.141A.8.8,0,0,0,.169.075.793.793,0,0,0-.04.051.432.432,0,0,0-.4.213.753.753,0,0,0-.529.692V2.117h-.494V-.377h.494v.238A.69.69,0,0,1-.294-.346.673.673,0,0,1,.041-.43.925.925,0,0,1,.29-.4a.511.511,0,0,1,.173.077Z" transform="translate(187.989 325.71)"/><path class="c" d="M0,9.567H124.214V-29.177H0Z" transform="translate(113 319.177)"/><path class="d" d="M0,0V3.326H.494V1.848h.955v-.49H.494V.49H2.138V0Z" transform="translate(190.125 324.501)"/><path class="d" d="M.336.141A.833.833,0,0,0,.17.075.793.793,0,0,0-.04.051.435.435,0,0,0-.4.213.762.762,0,0,0-.529.692V2.117h-.5V-.377h.5v.238A.677.677,0,0,1-.294-.346.669.669,0,0,1,.041-.43.925.925,0,0,1,.291-.4a.536.536,0,0,1,.173.077Z" transform="translate(193.372 325.71)"/><path class="d" d="M.529.309c0,.044,0,.086,0,.125S.518.507.514.532H-1.132A1.018,1.018,0,0,0-1.058.84a.672.672,0,0,0,.143.211.549.549,0,0,0,.19.125.635.635,0,0,0,.219.04.788.788,0,0,0,.288-.052,1.145,1.145,0,0,0,.252-.147l.289.313a1.231,1.231,0,0,1-.37.242,1.253,1.253,0,0,1-.489.085A1.03,1.03,0,0,1-.95,1.572a.955.955,0,0,1-.344-.252A1.2,1.2,0,0,1-1.527.912,1.65,1.65,0,0,1-1.613.361,1.749,1.749,0,0,1-1.532-.2a1.171,1.171,0,0,1,.223-.406.945.945,0,0,1,.344-.25A1.126,1.126,0,0,1-.52-.942a1.009,1.009,0,0,1,.462.1A.92.92,0,0,1,.27-.57a1.128,1.128,0,0,1,.2.4A1.729,1.729,0,0,1,.529.309M-.01-.115a.6.6,0,0,0-.1-.2A.534.534,0,0,0-.294-.449.615.615,0,0,0-.555-.5a.49.49,0,0,0-.39.163.821.821,0,0,0-.179.463H.035A.95.95,0,0,0-.01-.115" transform="translate(195.619 326.222)"/><path class="d" d="M.467.46A.706.706,0,0,1,.388.808a.632.632,0,0,1-.207.227.845.845,0,0,1-.3.122A1.528,1.528,0,0,1-.47,1.2a1.524,1.524,0,0,1-.51-.09A1.681,1.681,0,0,1-1.423.877L-1.2.506A1.368,1.368,0,0,0-.836.692,1.156,1.156,0,0,0-.474.755c.3,0,.455-.093.455-.276A.256.256,0,0,0-.172.25,3.689,3.689,0,0,0-.6.06a2.54,2.54,0,0,1-.34-.154,1.03,1.03,0,0,1-.228-.169.579.579,0,0,1-.126-.2.807.807,0,0,1-.037-.259.668.668,0,0,1,.061-.295.586.586,0,0,1,.177-.214A.775.775,0,0,1-.82-1.359,1.271,1.271,0,0,1-.479-1.4a1.443,1.443,0,0,1,.459.076,1.455,1.455,0,0,1,.386.2L.153-.751A1.149,1.149,0,0,0-.155-.913,1.037,1.037,0,0,0-.492-.965.414.414,0,0,0-.754-.9a.2.2,0,0,0-.081.163.222.222,0,0,0,.019.089.278.278,0,0,0,.072.082.92.92,0,0,0,.139.088,2.5,2.5,0,0,0,.231.1c.139.053.262.106.366.155a1.144,1.144,0,0,1,.263.166A.592.592,0,0,1,.415.161a.767.767,0,0,1,.052.3" transform="translate(197.895 326.683)"/><path class="d" d="M.529.309A1.237,1.237,0,0,1,.524.434c0,.04-.005.073-.009.1H-1.134A1.057,1.057,0,0,0-1.058.84a.672.672,0,0,0,.143.211.556.556,0,0,0,.189.125.648.648,0,0,0,.22.04.776.776,0,0,0,.287-.052,1.153,1.153,0,0,0,.254-.147l.289.313a1.231,1.231,0,0,1-.37.242,1.257,1.257,0,0,1-.489.085A1.03,1.03,0,0,1-.95,1.572a.955.955,0,0,1-.344-.252A1.207,1.207,0,0,1-1.528.912,1.65,1.65,0,0,1-1.613.361,1.749,1.749,0,0,1-1.532-.2a1.15,1.15,0,0,1,.223-.406.934.934,0,0,1,.344-.25A1.124,1.124,0,0,1-.521-.942a1.015,1.015,0,0,1,.463.1A.932.932,0,0,1,.27-.57a1.175,1.175,0,0,1,.2.4A1.78,1.78,0,0,1,.529.309M-.01-.115a.6.6,0,0,0-.106-.2A.516.516,0,0,0-.294-.449.619.619,0,0,0-.555-.5a.49.49,0,0,0-.39.163.811.811,0,0,0-.179.463H.035A1.08,1.08,0,0,0-.01-.115" transform="translate(200.346 326.222)"/><path class="d" d="M.373.629V-.779a.805.805,0,0,0-.134-.53.471.471,0,0,0-.374-.153A.448.448,0,0,0-.512-1.3a.73.73,0,0,0-.133.469V.629h-.493v-2.49h.493l-.005.236a.637.637,0,0,1,.264-.216.881.881,0,0,1,.364-.077.8.8,0,0,1,.663.28A1.32,1.32,0,0,1,.867-.8V.629Z" transform="translate(202.53 327.198)"/><path class="d" d="M.156.079A.3.3,0,0,1,.064.3.3.3,0,0,1-.157.392.306.306,0,0,1-.383.3.3.3,0,0,1-.476.079.309.309,0,0,1-.383-.147.311.311,0,0,1-.157-.24a.306.306,0,0,1,.222.093A.307.307,0,0,1,.156.079M-.4.715H.09V3.209H-.4Zm0,2.494" transform="translate(204.438 324.618)"/><path class="d" d="M.373.615l0-.238A.613.613,0,0,1,.114.593.84.84,0,0,1-.25.67.8.8,0,0,1-.913.389a1.311,1.311,0,0,1-.224-.835v-1.43h.493V-.468A.812.812,0,0,0-.51.063.473.473,0,0,0-.136.214.456.456,0,0,0,.241.048.738.738,0,0,0,.373-.421V-1.876H.867V.615Z" transform="translate(206.297 327.209)"/><path class="d" d="M.467.46A.706.706,0,0,1,.388.808a.632.632,0,0,1-.207.227.845.845,0,0,1-.3.122A1.528,1.528,0,0,1-.47,1.2a1.524,1.524,0,0,1-.51-.09A1.681,1.681,0,0,1-1.423.877L-1.2.506A1.368,1.368,0,0,0-.836.692,1.156,1.156,0,0,0-.474.755c.3,0,.455-.093.455-.276A.256.256,0,0,0-.172.25,3.689,3.689,0,0,0-.6.06a2.54,2.54,0,0,1-.34-.154,1.03,1.03,0,0,1-.228-.169.579.579,0,0,1-.126-.2.807.807,0,0,1-.037-.259.668.668,0,0,1,.061-.295.586.586,0,0,1,.177-.214A.775.775,0,0,1-.82-1.359,1.271,1.271,0,0,1-.479-1.4a1.449,1.449,0,0,1,.459.076,1.455,1.455,0,0,1,.386.2L.153-.751A1.149,1.149,0,0,0-.155-.913,1.037,1.037,0,0,0-.492-.965.414.414,0,0,0-.754-.9a.2.2,0,0,0-.081.163.222.222,0,0,0,.019.089.26.26,0,0,0,.072.082.92.92,0,0,0,.139.088,2.5,2.5,0,0,0,.231.1c.139.053.262.106.366.155a1.144,1.144,0,0,1,.263.166A.592.592,0,0,1,.415.161a.767.767,0,0,1,.052.3" transform="translate(209.072 326.683)"/><path class="d" d="M.508.821-.447-.885l-.617.746v.96h-.485V-2.5h.485v1.271c0,.056,0,.113,0,.17s0,.116,0,.17,0,.093,0,.118a1.027,1.027,0,0,1,.068-.094c.031-.041.065-.088.1-.137s.076-.1.114-.143l.1-.125L.294-2.5H.86L-.115-1.3,1.072.821Z" transform="translate(212.671 327.006)"/><path class="d" d="M.382.629V.382A1.1,1.1,0,0,1,.078.6.852.852,0,0,1-.3.681,1.066,1.066,0,0,1-.608.636.782.782,0,0,1-.886.491a.75.75,0,0,1-.2-.262A.865.865,0,0,1-1.166-.16.8.8,0,0,1-1.09-.52a.706.706,0,0,1,.21-.252A.889.889,0,0,1-.567-.919,1.529,1.529,0,0,1-.173-.967a1.4,1.4,0,0,1,.555.094v-.185a.4.4,0,0,0-.121-.313A.5.5,0,0,0-.088-1.48a1.539,1.539,0,0,0-.349.037,1.229,1.229,0,0,0-.3.12l-.19-.372a1.578,1.578,0,0,1,.385-.166,1.777,1.777,0,0,1,.469-.057A1.055,1.055,0,0,1,.6-1.711a.761.761,0,0,1,.258.629V.629Zm0-1.064A.857.857,0,0,0,.147-.516,1.6,1.6,0,0,0-.187-.544a.619.619,0,0,0-.376.1A.315.315,0,0,0-.7-.174a.4.4,0,0,0,.12.3A.5.5,0,0,0-.222.24a.654.654,0,0,0,.36-.1A.824.824,0,0,0,.382-.079Z" transform="translate(215.162 327.198)"/><path class="d" d="M.517.557a1.743,1.743,0,0,1-.08.558,1.191,1.191,0,0,1-.216.392.837.837,0,0,1-.313.232.925.925,0,0,1-.373.077A.775.775,0,0,1-.823,1.73a.987.987,0,0,1-.27-.2V1.76h-.485V-1.448l.485-.251V-.491A1.478,1.478,0,0,1-.8-.7.75.75,0,0,1-.442-.783a.945.945,0,0,1,.376.076A.794.794,0,0,1,.24-.469a1.17,1.17,0,0,1,.2.416A2.218,2.218,0,0,1,.517.557M.023.572A1.262,1.262,0,0,0-.12-.115.474.474,0,0,0-.535-.327a.568.568,0,0,0-.321.1A1,1,0,0,0-1.1-.01V1.034a.889.889,0,0,0,.1.113.781.781,0,0,0,.138.1A.693.693,0,0,0-.7,1.329a.536.536,0,0,0,.179.032.46.46,0,0,0,.4-.2A1.038,1.038,0,0,0,.023.572" transform="translate(218.215 326.064)"/><path class="d" d="M.156.079A.3.3,0,0,1,.064.3.3.3,0,0,1-.157.392.306.306,0,0,1-.383.3.3.3,0,0,1-.476.079.309.309,0,0,1-.383-.147.311.311,0,0,1-.157-.24a.306.306,0,0,1,.222.093A.307.307,0,0,1,.156.079M-.4.715H.09V3.209H-.4Zm0,2.494" transform="translate(219.682 324.618)"/><path class="c" d="M0,9.567H124.214V-29.177H0Z" transform="translate(113 319.177)"/></g></svg>